<?xml version="1.0" encoding="UTF-8"?>
<svg xmlns="http://www.w3.org/2000/svg" viewBox="0 0 1000 390" role="img" aria-labelledby="decode-history-title decode-history-desc"><title id="decode-history-title">DP8 decode throughput over time — last 14 runs</title><desc id="decode-history-desc">Legacy peak-output throughput and current C256 peak-active window P50 throughput are separate series because their statistics are not directly comparable.</desc><style>.bg{fill:#fff}.grid{stroke:#d9e2ec;stroke-width:1}.axis{fill:#52606d;font:13px ui-monospace,SFMono-Regular,Consolas,monospace}.heading{fill:#102a43;font:600 19px system-ui,sans-serif}.line{fill:none;stroke-width:4;stroke-linejoin:round;stroke-linecap:round}.dot{fill:#fff;stroke-width:3}.latest{stroke-width:3}.legend{fill:#334e68;font:600 13px system-ui,sans-serif}.value{font:600 14px system-ui,sans-serif}</style><rect class="bg" width="1000" height="390" rx="12"/><text class="heading" x="82" y="31">DP8 decode throughput over time — last 14 runs</text><line x1="82" y1="52" x2="110" y2="52" stroke="#039855" stroke-width="4" stroke-linecap="round"/><text class="legend" x="119" y="57">C256 peak-active window P50</text><line class="grid" x1="82" y1="324.00" x2="972" y2="324.00"/><text class="axis" text-anchor="end" x="71" y="328.00">0</text><line class="grid" x1="82" y1="262.00" x2="972" y2="262.00"/><text class="axis" text-anchor="end" x="71" y="266.00">1.4k</text><line class="grid" x1="82" y1="200.00" x2="972" y2="200.00"/><text class="axis" text-anchor="end" x="71" y="204.00">2.7k</text><line class="grid" x1="82" y1="138.00" x2="972" y2="138.00"/><text class="axis" text-anchor="end" x="71" y="142.00">4.1k</text><line class="grid" x1="82" y1="76.00" x2="972" y2="76.00"/><text class="axis" text-anchor="end" x="71" y="80.00">5.5k</text><text class="axis" text-anchor="middle" x="82.00" y="352">08-01 17:25</text><text class="axis" text-anchor="middle" x="287.38" y="352">08-03 17:21</text><text class="axis" text-anchor="middle" x="424.31" y="352">08-04 17:20</text><text class="axis" text-anchor="middle" x="629.69" y="352">08-08 01:18</text><text class="axis" text-anchor="middle" x="766.62" y="352">08-12 06:25</text><text class="axis" text-anchor="end" x="972.00" y="352">08-21 23:00</text><polyline class="line" stroke="#039855" points="82.00,134.57 150.46,134.40 218.92,111.29 287.38,111.76 355.85,102.57 424.31,102.61 492.77,103.29 561.23,103.52 629.69,103.35 698.15,103.72 766.62,103.28 835.08,103.61 903.54,104.22 972.00,103.38"/><circle class="dot" fill="#fff" stroke="#039855" cx="82.00" cy="134.57" r="6"><title>C256 peak-active window P50 · 20260801T160001Z: 4,177.20 tok/s</title></circle><circle class="dot" fill="#fff" stroke="#039855" cx="150.46" cy="134.40" r="6"><title>C256 peak-active window P50 · 20260802T160001Z: 4,180.90 tok/s</title></circle><circle class="dot" fill="#fff" stroke="#039855" cx="218.92" cy="111.29" r="6"><title>C256 peak-active window P50 · 20260803T080633Z: 4,690.53 tok/s</title></circle><circle class="dot" fill="#fff" stroke="#039855" cx="287.38" cy="111.76" r="6"><title>C256 peak-active window P50 · 20260803T160001Z: 4,680.27 tok/s</title></circle><circle class="dot" fill="#fff" stroke="#039855" cx="355.85" cy="102.57" r="6"><title>C256 peak-active window P50 · 20260804T032439Z: 4,882.83 tok/s</title></circle><circle class="dot" fill="#fff" stroke="#039855" cx="424.31" cy="102.61" r="6"><title>C256 peak-active window P50 · 20260804T160001Z: 4,881.97 tok/s</title></circle><circle class="dot" fill="#fff" stroke="#039855" cx="492.77" cy="103.29" r="6"><title>C256 peak-active window P50 · 20260805T160001Z: 4,866.90 tok/s</title></circle><circle class="dot" fill="#fff" stroke="#039855" cx="561.23" cy="103.52" r="6"><title>C256 peak-active window P50 · 20260807T061907Z: 4,861.90 tok/s</title></circle><circle class="dot" fill="#fff" stroke="#039855" cx="629.69" cy="103.35" r="6"><title>C256 peak-active window P50 · 20260808T000237Z: 4,865.70 tok/s</title></circle><circle class="dot" fill="#fff" stroke="#039855" cx="698.15" cy="103.72" r="6"><title>C256 peak-active window P50 · 20260808T160001Z: 4,857.60 tok/s</title></circle><circle class="dot" fill="#fff" stroke="#039855" cx="766.62" cy="103.28" r="6"><title>C256 peak-active window P50 · 20260812T051051Z: 4,867.20 tok/s</title></circle><circle class="dot" fill="#fff" stroke="#039855" cx="835.08" cy="103.61" r="6"><title>C256 peak-active window P50 · 20260818T130726Z: 4,859.93 tok/s</title></circle><circle class="dot" fill="#fff" stroke="#039855" cx="903.54" cy="104.22" r="6"><title>C256 peak-active window P50 · 20260820T051256Z: 4,846.40 tok/s</title></circle><circle class="dot latest" fill="#039855" stroke="#039855" cx="972.00" cy="103.38" r="6"><title>C256 peak-active window P50 · 20260821T141540Z: 4,864.90 tok/s</title></circle><text class="value" fill="#039855" text-anchor="end" x="972.00" y="90.38">4,865 tok/s</text></svg>