<?xml version="1.0" encoding="UTF-8"?>
<svg xmlns="http://www.w3.org/2000/svg" viewBox="0 0 1000 390" role="img" aria-labelledby="prefill-ttft-title prefill-ttft-desc"><title id="prefill-ttft-title">DP8 vs PCP8 single-request prefill TTFT</title><desc id="prefill-ttft-desc">Latency to the first generated token at concurrency one for the latest DP8 and PCP8 TTFT benchmark attempts.</desc><style>.bg{fill:#fff}.grid{stroke:#d9e2ec;stroke-width:1}.axis{fill:#52606d;font:13px ui-monospace,SFMono-Regular,Consolas,monospace}.heading{fill:#102a43;font:600 19px system-ui,sans-serif}.line{fill:none;stroke-width:4;stroke-linejoin:round;stroke-linecap:round}.dot{fill:#fff;stroke-width:3}.latest{stroke-width:3}.legend{fill:#334e68;font:600 13px system-ui,sans-serif}.value{font:600 14px system-ui,sans-serif}</style><rect class="bg" width="1000" height="390" rx="12"/><text class="heading" x="82" y="31">DP8 vs PCP8 single-request prefill TTFT</text><line x1="82" y1="52" x2="110" y2="52" stroke="#1570ef" stroke-width="4" stroke-linecap="round"/><text class="legend" x="119" y="57">DP8</text><line x1="212" y1="52" x2="240" y2="52" stroke="#7a5af8" stroke-width="4" stroke-linecap="round"/><text class="legend" x="249" y="57">PCP8</text><line class="grid" x1="82" y1="324.00" x2="972" y2="324.00"/><text class="axis" text-anchor="end" x="71" y="328.00">0</text><line class="grid" x1="82" y1="262.00" x2="972" y2="262.00"/><text class="axis" text-anchor="end" x="71" y="266.00">18.3k</text><line class="grid" x1="82" y1="200.00" x2="972" y2="200.00"/><text class="axis" text-anchor="end" x="71" y="204.00">36.6k</text><line class="grid" x1="82" y1="138.00" x2="972" y2="138.00"/><text class="axis" text-anchor="end" x="71" y="142.00">54.9k</text><line class="grid" x1="82" y1="76.00" x2="972" y2="76.00"/><text class="axis" text-anchor="end" x="71" y="80.00">73.2k</text><text class="axis" text-anchor="middle" x="82.00" y="352">8K</text><text class="axis" text-anchor="middle" x="260.00" y="352">16K</text><text class="axis" text-anchor="middle" x="438.00" y="352">32K</text><text class="axis" text-anchor="middle" x="616.00" y="352">64K</text><text class="axis" text-anchor="middle" x="794.00" y="352">128K</text><text class="axis" text-anchor="end" x="972.00" y="352">252K</text><polyline class="line" stroke="#1570ef" points="82.00,320.45 260.00,316.68 438.00,308.44 616.00,289.20 794.00,239.84 972.00,102.57"/><circle class="dot" fill="#fff" stroke="#1570ef" cx="82.00" cy="320.45" r="6"><title>DP8 8K · 20260812T073954Z: 1,048.24 ms</title></circle><circle class="dot" fill="#fff" stroke="#1570ef" cx="260.00" cy="316.68" r="6"><title>DP8 16K · 20260812T073954Z: 2,161.25 ms</title></circle><circle class="dot" fill="#fff" stroke="#1570ef" cx="438.00" cy="308.44" r="6"><title>DP8 32K · 20260812T073954Z: 4,595.86 ms</title></circle><circle class="dot" fill="#fff" stroke="#1570ef" cx="616.00" cy="289.20" r="6"><title>DP8 64K · 20260812T073954Z: 10,276.45 ms</title></circle><circle class="dot" fill="#fff" stroke="#1570ef" cx="794.00" cy="239.84" r="6"><title>DP8 128K · 20260812T073954Z: 24,854.46 ms</title></circle><circle class="dot latest" fill="#1570ef" stroke="#1570ef" cx="972.00" cy="102.57" r="6"><title>DP8 252K · 20260812T073954Z: 65,390.41 ms</title></circle><text class="value" fill="#1570ef" text-anchor="end" x="972.00" y="90.00">65,390 ms</text><polyline class="line" stroke="#7a5af8" points="82.00,323.17 260.00,322.46 438.00,320.91 616.00,317.37 794.00,308.95 972.00,287.76"/><circle class="dot" fill="#fff" stroke="#7a5af8" cx="82.00" cy="323.17" r="6"><title>PCP8 8K · 20260812T085859Z: 246.03 ms</title></circle><circle class="dot" fill="#fff" stroke="#7a5af8" cx="260.00" cy="322.46" r="6"><title>PCP8 16K · 20260812T085859Z: 455.51 ms</title></circle><circle class="dot" fill="#fff" stroke="#7a5af8" cx="438.00" cy="320.91" r="6"><title>PCP8 32K · 20260812T085859Z: 913.41 ms</title></circle><circle class="dot" fill="#fff" stroke="#7a5af8" cx="616.00" cy="317.37" r="6"><title>PCP8 64K · 20260812T085859Z: 1,957.52 ms</title></circle><circle class="dot" fill="#fff" stroke="#7a5af8" cx="794.00" cy="308.95" r="6"><title>PCP8 128K · 20260812T085859Z: 4,444.96 ms</title></circle><circle class="dot latest" fill="#7a5af8" stroke="#7a5af8" cx="972.00" cy="287.76" r="6"><title>PCP8 252K · 20260812T085859Z: 10,702.92 ms</title></circle><text class="value" fill="#7a5af8" text-anchor="end" x="972.00" y="310.76">10,703 ms</text></svg>