<?xml version="1.0" encoding="UTF-8"?>
<svg xmlns="http://www.w3.org/2000/svg" viewBox="0 0 1000 390" role="img" aria-labelledby="throughput-title throughput-desc"><title id="throughput-title">Latest DP8 vs PCP8 throughput by concurrency</title><desc id="throughput-desc">Total token throughput at each tested concurrency for the latest DP8 and PCP8 benchmark attempts with successful data.</desc><style>.bg{fill:#fff}.grid{stroke:#d9e2ec;stroke-width:1}.axis{fill:#52606d;font:13px ui-monospace,SFMono-Regular,Consolas,monospace}.heading{fill:#102a43;font:600 19px system-ui,sans-serif}.line{fill:none;stroke-width:4;stroke-linejoin:round;stroke-linecap:round}.dot{fill:#fff;stroke-width:3}.latest{stroke-width:3}.legend{fill:#334e68;font:600 13px system-ui,sans-serif}.value{font:600 14px system-ui,sans-serif}</style><rect class="bg" width="1000" height="390" rx="12"/><text class="heading" x="82" y="31">Latest DP8 vs PCP8 throughput by concurrency</text><line x1="82" y1="52" x2="110" y2="52" stroke="#7a5af8" stroke-width="4" stroke-linecap="round"/><text class="legend" x="119" y="57">PCP8</text><line class="grid" x1="82" y1="324.00" x2="972" y2="324.00"/><text class="axis" text-anchor="end" x="71" y="328.00">0</text><line class="grid" x1="82" y1="262.00" x2="972" y2="262.00"/><text class="axis" text-anchor="end" x="71" y="266.00">11.5k</text><line class="grid" x1="82" y1="200.00" x2="972" y2="200.00"/><text class="axis" text-anchor="end" x="71" y="204.00">23.0k</text><line class="grid" x1="82" y1="138.00" x2="972" y2="138.00"/><text class="axis" text-anchor="end" x="71" y="142.00">34.4k</text><line class="grid" x1="82" y1="76.00" x2="972" y2="76.00"/><text class="axis" text-anchor="end" x="71" y="80.00">45.9k</text><text class="axis" text-anchor="middle" x="82.00" y="352">c8</text><text class="axis" text-anchor="middle" x="260.00" y="352">c16</text><text class="axis" text-anchor="middle" x="438.00" y="352">c32</text><text class="axis" text-anchor="middle" x="616.00" y="352">c64</text><text class="axis" text-anchor="middle" x="794.00" y="352">c128</text><text class="axis" text-anchor="end" x="972.00" y="352">c256</text><polyline class="line" stroke="#7a5af8" points="82.00,172.61 260.00,102.57 438.00,102.57 616.00,102.59 794.00,102.81 972.00,102.80"/><circle class="dot" fill="#fff" stroke="#7a5af8" cx="82.00" cy="172.61" r="6"><title>PCP8 concurrency 8: 28,025.73 tok/s</title></circle><circle class="dot" fill="#fff" stroke="#7a5af8" cx="260.00" cy="102.57" r="6"><title>PCP8 concurrency 16: 40,990.36 tok/s</title></circle><circle class="dot" fill="#fff" stroke="#7a5af8" cx="438.00" cy="102.57" r="6"><title>PCP8 concurrency 32: 40,990.71 tok/s</title></circle><circle class="dot" fill="#fff" stroke="#7a5af8" cx="616.00" cy="102.59" r="6"><title>PCP8 concurrency 64: 40,987.24 tok/s</title></circle><circle class="dot" fill="#fff" stroke="#7a5af8" cx="794.00" cy="102.81" r="6"><title>PCP8 concurrency 128: 40,947.40 tok/s</title></circle><circle class="dot latest" fill="#7a5af8" stroke="#7a5af8" cx="972.00" cy="102.80" r="6"><title>PCP8 concurrency 256: 40,949.17 tok/s</title></circle><text class="value" fill="#7a5af8" text-anchor="end" x="972.00" y="90.00">40,949 tok/s</text></svg>