<?xml version="1.0" encoding="UTF-8"?>
<svg xmlns="http://www.w3.org/2000/svg" viewBox="0 0 1000 390" role="img" aria-labelledby="history-title history-desc"><title id="history-title">DP8 vs PCP8 peak throughput over time — last 10 runs</title><desc id="history-desc">Peak total token throughput for recent DP8 and PCP8 benchmark runs, ordered by completion time.</desc><style>.bg{fill:#fff}.grid{stroke:#d9e2ec;stroke-width:1}.axis{fill:#52606d;font:13px ui-monospace,SFMono-Regular,Consolas,monospace}.heading{fill:#102a43;font:600 19px system-ui,sans-serif}.line{fill:none;stroke-width:4;stroke-linejoin:round;stroke-linecap:round}.dot{fill:#fff;stroke-width:3}.latest{stroke-width:3}.legend{fill:#334e68;font:600 13px system-ui,sans-serif}.value{font:600 14px system-ui,sans-serif}</style><rect class="bg" width="1000" height="390" rx="12"/><text class="heading" x="82" y="31">DP8 vs PCP8 peak throughput over time — last 10 runs</text><line x1="82" y1="52" x2="110" y2="52" stroke="#1570ef" stroke-width="4" stroke-linecap="round"/><text class="legend" x="119" y="57">DP8</text><line x1="212" y1="52" x2="240" y2="52" stroke="#7a5af8" stroke-width="4" stroke-linecap="round"/><text class="legend" x="249" y="57">PCP8</text><line class="grid" x1="82" y1="324.00" x2="972" y2="324.00"/><text class="axis" text-anchor="end" x="71" y="328.00">0</text><line class="grid" x1="82" y1="262.00" x2="972" y2="262.00"/><text class="axis" text-anchor="end" x="71" y="266.00">13.8k</text><line class="grid" x1="82" y1="200.00" x2="972" y2="200.00"/><text class="axis" text-anchor="end" x="71" y="204.00">27.7k</text><line class="grid" x1="82" y1="138.00" x2="972" y2="138.00"/><text class="axis" text-anchor="end" x="71" y="142.00">41.5k</text><line class="grid" x1="82" y1="76.00" x2="972" y2="76.00"/><text class="axis" text-anchor="end" x="71" y="80.00">55.3k</text><text class="axis" text-anchor="middle" x="82.00" y="352">07-17 08:05</text><text class="axis" text-anchor="middle" x="279.78" y="352">07-17 09:18</text><text class="axis" text-anchor="middle" x="477.56" y="352">07-18 18:17</text><text class="axis" text-anchor="middle" x="576.44" y="352">07-19 18:16</text><text class="axis" text-anchor="middle" x="774.22" y="352">07-21 18:39</text><text class="axis" text-anchor="middle" x="972.00" y="352">07-22 05:17</text><polyline class="line" stroke="#1570ef" points="82.00,102.57 180.89,102.61 279.78,102.67 378.67,125.04 477.56,124.92 576.44,124.75 675.33,128.09 774.22,142.94 873.11,116.66"/><circle class="dot" fill="#fff" stroke="#1570ef" cx="82.00" cy="102.57" r="6"><title>DP8 · 20260717T075454Z: 49,381.83 tok/s at concurrency 64</title></circle><circle class="dot" fill="#fff" stroke="#1570ef" cx="180.89" cy="102.61" r="6"><title>DP8 · 20260717T085135Z: 49,372.29 tok/s at concurrency 64</title></circle><circle class="dot" fill="#fff" stroke="#1570ef" cx="279.78" cy="102.67" r="6"><title>DP8 · 20260717T090801Z: 49,360.61 tok/s at concurrency 64</title></circle><circle class="dot" fill="#fff" stroke="#1570ef" cx="378.67" cy="125.04" r="6"><title>DP8 · 20260717T234449Z: 44,371.29 tok/s at concurrency 64</title></circle><circle class="dot" fill="#fff" stroke="#1570ef" cx="477.56" cy="124.92" r="6"><title>DP8 · 20260718T180001Z: 44,397.93 tok/s at concurrency 64</title></circle><circle class="dot" fill="#fff" stroke="#1570ef" cx="576.44" cy="124.75" r="6"><title>DP8 · 20260719T180001Z: 44,436.44 tok/s at concurrency 64</title></circle><circle class="dot" fill="#fff" stroke="#1570ef" cx="675.33" cy="128.09" r="6"><title>DP8 · 20260720T180001Z: 43,690.58 tok/s at concurrency 64</title></circle><circle class="dot" fill="#fff" stroke="#1570ef" cx="774.22" cy="142.94" r="6"><title>DP8 · 20260721T180001Z: 40,378.43 tok/s at concurrency 64</title></circle><circle class="dot latest" fill="#1570ef" stroke="#1570ef" cx="873.11" cy="116.66" r="6"><title>DP8 · 20260722T014057Z: 46,240.26 tok/s at concurrency 16</title></circle><text class="value" fill="#1570ef" text-anchor="middle" x="873.11" y="103.66">46,240 tok/s</text><circle class="dot latest" fill="#7a5af8" stroke="#7a5af8" cx="972.00" cy="170.21" r="6"><title>PCP8 · manual-pcp8-bench-20260722T050712Z: 34,296.71 tok/s at concurrency 16</title></circle><text class="value" fill="#7a5af8" text-anchor="end" x="972.00" y="193.21">34,297 tok/s</text></svg>