<?xml version="1.0" encoding="UTF-8"?>
<svg xmlns="http://www.w3.org/2000/svg" viewBox="0 0 1000 390" role="img" aria-labelledby="throughput-title throughput-desc"><title id="throughput-title">Latest DP8 vs PCP8 throughput by concurrency</title><desc id="throughput-desc">Total token throughput at each tested concurrency for the latest successful DP8 and PCP8 benchmarks.</desc><style>.bg{fill:#fff}.grid{stroke:#d9e2ec;stroke-width:1}.axis{fill:#52606d;font:13px ui-monospace,SFMono-Regular,Consolas,monospace}.heading{fill:#102a43;font:600 19px system-ui,sans-serif}.line{fill:none;stroke-width:4;stroke-linejoin:round;stroke-linecap:round}.dot{fill:#fff;stroke-width:3}.latest{stroke-width:3}.legend{fill:#334e68;font:600 13px system-ui,sans-serif}.value{font:600 14px system-ui,sans-serif}</style><rect class="bg" width="1000" height="390" rx="12"/><text class="heading" x="82" y="31">Latest DP8 vs PCP8 throughput by concurrency</text><line x1="82" y1="52" x2="110" y2="52" stroke="#1570ef" stroke-width="4" stroke-linecap="round"/><text class="legend" x="119" y="57">DP8</text><line x1="212" y1="52" x2="240" y2="52" stroke="#7a5af8" stroke-width="4" stroke-linecap="round"/><text class="legend" x="249" y="57">PCP8</text><line class="grid" x1="82" y1="324.00" x2="972" y2="324.00"/><text class="axis" text-anchor="end" x="71" y="328.00">0</text><line class="grid" x1="82" y1="262.00" x2="972" y2="262.00"/><text class="axis" text-anchor="end" x="71" y="266.00">14.7k</text><line class="grid" x1="82" y1="200.00" x2="972" y2="200.00"/><text class="axis" text-anchor="end" x="71" y="204.00">29.4k</text><line class="grid" x1="82" y1="138.00" x2="972" y2="138.00"/><text class="axis" text-anchor="end" x="71" y="142.00">44.1k</text><line class="grid" x1="82" y1="76.00" x2="972" y2="76.00"/><text class="axis" text-anchor="end" x="71" y="80.00">58.9k</text><text class="axis" text-anchor="middle" x="82.00" y="352">c1</text><text class="axis" text-anchor="middle" x="230.33" y="352">c2</text><text class="axis" text-anchor="middle" x="378.67" y="352">c4</text><text class="axis" text-anchor="middle" x="675.33" y="352">c16</text><text class="axis" text-anchor="middle" x="823.67" y="352">c32</text><text class="axis" text-anchor="end" x="972.00" y="352">c64</text><polyline class="line" stroke="#1570ef" points="82.00,303.62 230.33,295.80 378.67,265.72 527.00,188.56 675.33,111.80 823.67,111.57 972.00,102.57"/><circle class="dot" fill="#fff" stroke="#1570ef" cx="82.00" cy="303.62" r="6"><title>DP8 concurrency 1: 4,836.86 tok/s</title></circle><circle class="dot" fill="#fff" stroke="#1570ef" cx="230.33" cy="295.80" r="6"><title>DP8 concurrency 2: 6,692.98 tok/s</title></circle><circle class="dot" fill="#fff" stroke="#1570ef" cx="378.67" cy="265.72" r="6"><title>DP8 concurrency 4: 13,830.81 tok/s</title></circle><circle class="dot" fill="#fff" stroke="#1570ef" cx="527.00" cy="188.56" r="6"><title>DP8 concurrency 8: 32,142.22 tok/s</title></circle><circle class="dot" fill="#fff" stroke="#1570ef" cx="675.33" cy="111.80" r="6"><title>DP8 concurrency 16: 50,357.11 tok/s</title></circle><circle class="dot" fill="#fff" stroke="#1570ef" cx="823.67" cy="111.57" r="6"><title>DP8 concurrency 32: 50,413.79 tok/s</title></circle><circle class="dot latest" fill="#1570ef" stroke="#1570ef" cx="972.00" cy="102.57" r="6"><title>DP8 concurrency 64: 52,548.29 tok/s</title></circle><text class="value" fill="#1570ef" text-anchor="end" x="972.00" y="90.00">52,548 tok/s</text><polyline class="line" stroke="#7a5af8" points="82.00,285.43 230.33,283.63 378.67,238.49 527.00,205.33 675.33,138.75 823.67,138.78 972.00,139.19"/><circle class="dot" fill="#fff" stroke="#7a5af8" cx="82.00" cy="285.43" r="6"><title>PCP8 concurrency 1: 9,153.22 tok/s</title></circle><circle class="dot" fill="#fff" stroke="#7a5af8" cx="230.33" cy="283.63" r="6"><title>PCP8 concurrency 2: 9,579.53 tok/s</title></circle><circle class="dot" fill="#fff" stroke="#7a5af8" cx="378.67" cy="238.49" r="6"><title>PCP8 concurrency 4: 20,292.81 tok/s</title></circle><circle class="dot" fill="#fff" stroke="#7a5af8" cx="527.00" cy="205.33" r="6"><title>PCP8 concurrency 8: 28,161.95 tok/s</title></circle><circle class="dot" fill="#fff" stroke="#7a5af8" cx="675.33" cy="138.75" r="6"><title>PCP8 concurrency 16: 43,961.81 tok/s</title></circle><circle class="dot" fill="#fff" stroke="#7a5af8" cx="823.67" cy="138.78" r="6"><title>PCP8 concurrency 32: 43,956.58 tok/s</title></circle><circle class="dot latest" fill="#7a5af8" stroke="#7a5af8" cx="972.00" cy="139.19" r="6"><title>PCP8 concurrency 64: 43,859.33 tok/s</title></circle><text class="value" fill="#7a5af8" text-anchor="end" x="972.00" y="162.19">43,859 tok/s</text></svg>