<?xml version="1.0" encoding="UTF-8"?>
<svg xmlns="http://www.w3.org/2000/svg" viewBox="0 0 1000 390" role="img" aria-labelledby="throughput-title throughput-desc"><title id="throughput-title">Latest DP8 vs PCP8 throughput by concurrency</title><desc id="throughput-desc">Total token throughput at each tested concurrency for the latest DP8 and PCP8 benchmark attempts with successful data.</desc><style>.bg{fill:#fff}.grid{stroke:#d9e2ec;stroke-width:1}.axis{fill:#52606d;font:13px ui-monospace,SFMono-Regular,Consolas,monospace}.heading{fill:#102a43;font:600 19px system-ui,sans-serif}.line{fill:none;stroke-width:4;stroke-linejoin:round;stroke-linecap:round}.dot{fill:#fff;stroke-width:3}.latest{stroke-width:3}.legend{fill:#334e68;font:600 13px system-ui,sans-serif}.value{font:600 14px system-ui,sans-serif}</style><rect class="bg" width="1000" height="390" rx="12"/><text class="heading" x="82" y="31">Latest DP8 vs PCP8 throughput by concurrency</text><line x1="82" y1="52" x2="110" y2="52" stroke="#1570ef" stroke-width="4" stroke-linecap="round"/><text class="legend" x="119" y="57">DP8</text><line x1="212" y1="52" x2="240" y2="52" stroke="#7a5af8" stroke-width="4" stroke-linecap="round"/><text class="legend" x="249" y="57">PCP8</text><line class="grid" x1="82" y1="324.00" x2="972" y2="324.00"/><text class="axis" text-anchor="end" x="71" y="328.00">0</text><line class="grid" x1="82" y1="262.00" x2="972" y2="262.00"/><text class="axis" text-anchor="end" x="71" y="266.00">12.4k</text><line class="grid" x1="82" y1="200.00" x2="972" y2="200.00"/><text class="axis" text-anchor="end" x="71" y="204.00">24.8k</text><line class="grid" x1="82" y1="138.00" x2="972" y2="138.00"/><text class="axis" text-anchor="end" x="71" y="142.00">37.2k</text><line class="grid" x1="82" y1="76.00" x2="972" y2="76.00"/><text class="axis" text-anchor="end" x="71" y="80.00">49.6k</text><text class="axis" text-anchor="middle" x="82.00" y="352">c8</text><text class="axis" text-anchor="middle" x="260.00" y="352">c16</text><text class="axis" text-anchor="middle" x="438.00" y="352">c32</text><text class="axis" text-anchor="middle" x="616.00" y="352">c64</text><text class="axis" text-anchor="middle" x="794.00" y="352">c128</text><text class="axis" text-anchor="end" x="972.00" y="352">c256</text><polyline class="line" stroke="#1570ef" points="82.00,214.15 260.00,144.28 438.00,110.07 616.00,109.57 794.00,106.16 972.00,102.57"/><circle class="dot" fill="#fff" stroke="#1570ef" cx="82.00" cy="214.15" r="6"><title>DP8 concurrency 8: 21,967.64 tok/s</title></circle><circle class="dot" fill="#fff" stroke="#1570ef" cx="260.00" cy="144.28" r="6"><title>DP8 concurrency 16: 35,939.63 tok/s</title></circle><circle class="dot" fill="#fff" stroke="#1570ef" cx="438.00" cy="110.07" r="6"><title>DP8 concurrency 32: 42,781.73 tok/s</title></circle><circle class="dot" fill="#fff" stroke="#1570ef" cx="616.00" cy="109.57" r="6"><title>DP8 concurrency 64: 42,881.22 tok/s</title></circle><circle class="dot" fill="#fff" stroke="#1570ef" cx="794.00" cy="106.16" r="6"><title>DP8 concurrency 128: 43,563.50 tok/s</title></circle><circle class="dot latest" fill="#1570ef" stroke="#1570ef" cx="972.00" cy="102.57" r="6"><title>DP8 concurrency 256: 44,281.39 tok/s</title></circle><text class="value" fill="#1570ef" text-anchor="end" x="972.00" y="90.00">44,281 tok/s</text><polyline class="line" stroke="#7a5af8" points="82.00,210.08 260.00,150.06 438.00,150.06 616.00,150.11 794.00,150.59 972.00,150.58"/><circle class="dot" fill="#fff" stroke="#7a5af8" cx="82.00" cy="210.08" r="6"><title>PCP8 concurrency 8: 22,782.53 tok/s</title></circle><circle class="dot" fill="#fff" stroke="#7a5af8" cx="260.00" cy="150.06" r="6"><title>PCP8 concurrency 16: 34,784.22 tok/s</title></circle><circle class="dot" fill="#fff" stroke="#7a5af8" cx="438.00" cy="150.06" r="6"><title>PCP8 concurrency 32: 34,783.94 tok/s</title></circle><circle class="dot" fill="#fff" stroke="#7a5af8" cx="616.00" cy="150.11" r="6"><title>PCP8 concurrency 64: 34,774.21 tok/s</title></circle><circle class="dot" fill="#fff" stroke="#7a5af8" cx="794.00" cy="150.59" r="6"><title>PCP8 concurrency 128: 34,679.18 tok/s</title></circle><circle class="dot latest" fill="#7a5af8" stroke="#7a5af8" cx="972.00" cy="150.58" r="6"><title>PCP8 concurrency 256: 34,681.40 tok/s</title></circle><text class="value" fill="#7a5af8" text-anchor="end" x="972.00" y="173.58">34,681 tok/s</text></svg>