<?xml version="1.0" encoding="UTF-8"?>
<svg xmlns="http://www.w3.org/2000/svg" viewBox="0 0 1000 390" role="img" aria-labelledby="throughput-title throughput-desc"><title id="throughput-title">Latest DP8 vs PCP8 throughput by concurrency</title><desc id="throughput-desc">Total token throughput at each tested concurrency for the latest DP8 and PCP8 benchmark attempts with successful data.</desc><style>.bg{fill:#fff}.grid{stroke:#d9e2ec;stroke-width:1}.axis{fill:#52606d;font:13px ui-monospace,SFMono-Regular,Consolas,monospace}.heading{fill:#102a43;font:600 19px system-ui,sans-serif}.line{fill:none;stroke-width:4;stroke-linejoin:round;stroke-linecap:round}.dot{fill:#fff;stroke-width:3}.latest{stroke-width:3}.legend{fill:#334e68;font:600 13px system-ui,sans-serif}.value{font:600 14px system-ui,sans-serif}</style><rect class="bg" width="1000" height="390" rx="12"/><text class="heading" x="82" y="31">Latest DP8 vs PCP8 throughput by concurrency</text><line x1="82" y1="52" x2="110" y2="52" stroke="#1570ef" stroke-width="4" stroke-linecap="round"/><text class="legend" x="119" y="57">DP8</text><line x1="212" y1="52" x2="240" y2="52" stroke="#7a5af8" stroke-width="4" stroke-linecap="round"/><text class="legend" x="249" y="57">PCP8</text><line class="grid" x1="82" y1="324.00" x2="972" y2="324.00"/><text class="axis" text-anchor="end" x="71" y="328.00">0</text><line class="grid" x1="82" y1="262.00" x2="972" y2="262.00"/><text class="axis" text-anchor="end" x="71" y="266.00">20.4k</text><line class="grid" x1="82" y1="200.00" x2="972" y2="200.00"/><text class="axis" text-anchor="end" x="71" y="204.00">40.7k</text><line class="grid" x1="82" y1="138.00" x2="972" y2="138.00"/><text class="axis" text-anchor="end" x="71" y="142.00">61.1k</text><line class="grid" x1="82" y1="76.00" x2="972" y2="76.00"/><text class="axis" text-anchor="end" x="71" y="80.00">81.5k</text><text class="axis" text-anchor="middle" x="82.00" y="352">c8</text><text class="axis" text-anchor="middle" x="260.00" y="352">c16</text><text class="axis" text-anchor="middle" x="438.00" y="352">c32</text><text class="axis" text-anchor="middle" x="616.00" y="352">c64</text><text class="axis" text-anchor="middle" x="794.00" y="352">c128</text><text class="axis" text-anchor="end" x="972.00" y="352">c256</text><polyline class="line" stroke="#1570ef" points="82.00,238.54 260.00,162.36 438.00,109.80 616.00,106.21 794.00,104.80 972.00,102.57"/><circle class="dot" fill="#fff" stroke="#1570ef" cx="82.00" cy="238.54" r="6"><title>DP8 concurrency 8: 28,077.00 tok/s</title></circle><circle class="dot" fill="#fff" stroke="#1570ef" cx="260.00" cy="162.36" r="6"><title>DP8 concurrency 16: 53,106.05 tok/s</title></circle><circle class="dot" fill="#fff" stroke="#1570ef" cx="438.00" cy="109.80" r="6"><title>DP8 concurrency 32: 70,374.66 tok/s</title></circle><circle class="dot" fill="#fff" stroke="#1570ef" cx="616.00" cy="106.21" r="6"><title>DP8 concurrency 64: 71,554.27 tok/s</title></circle><circle class="dot" fill="#fff" stroke="#1570ef" cx="794.00" cy="104.80" r="6"><title>DP8 concurrency 128: 72,019.34 tok/s</title></circle><circle class="dot latest" fill="#1570ef" stroke="#1570ef" cx="972.00" cy="102.57" r="6"><title>DP8 concurrency 256: 72,750.20 tok/s</title></circle><text class="value" fill="#1570ef" text-anchor="end" x="972.00" y="90.00">72,750 tok/s</text><polyline class="line" stroke="#7a5af8" points="82.00,154.66 260.00,125.52 438.00,123.81 616.00,123.69 794.00,124.09 972.00,124.53"/><circle class="dot" fill="#fff" stroke="#7a5af8" cx="82.00" cy="154.66" r="6"><title>PCP8 concurrency 8: 55,638.17 tok/s</title></circle><circle class="dot" fill="#fff" stroke="#7a5af8" cx="260.00" cy="125.52" r="6"><title>PCP8 concurrency 16: 65,210.59 tok/s</title></circle><circle class="dot" fill="#fff" stroke="#7a5af8" cx="438.00" cy="123.81" r="6"><title>PCP8 concurrency 32: 65,773.25 tok/s</title></circle><circle class="dot" fill="#fff" stroke="#7a5af8" cx="616.00" cy="123.69" r="6"><title>PCP8 concurrency 64: 65,810.82 tok/s</title></circle><circle class="dot" fill="#fff" stroke="#7a5af8" cx="794.00" cy="124.09" r="6"><title>PCP8 concurrency 128: 65,678.65 tok/s</title></circle><circle class="dot latest" fill="#7a5af8" stroke="#7a5af8" cx="972.00" cy="124.53" r="6"><title>PCP8 concurrency 256: 65,535.95 tok/s</title></circle><text class="value" fill="#7a5af8" text-anchor="end" x="972.00" y="147.53">65,536 tok/s</text></svg>