<?xml version="1.0" encoding="UTF-8"?>
<svg xmlns="http://www.w3.org/2000/svg" viewBox="0 0 1000 390" role="img" aria-labelledby="history-title history-desc"><title id="history-title">DP8 vs PCP8 peak throughput over time — last 30 runs</title><desc id="history-desc">Peak total token throughput for recent DP8 and PCP8 benchmark runs, ordered by completion time.</desc><style>.bg{fill:#fff}.grid{stroke:#d9e2ec;stroke-width:1}.axis{fill:#52606d;font:13px ui-monospace,SFMono-Regular,Consolas,monospace}.heading{fill:#102a43;font:600 19px system-ui,sans-serif}.line{fill:none;stroke-width:4;stroke-linejoin:round;stroke-linecap:round}.dot{fill:#fff;stroke-width:3}.latest{stroke-width:3}.legend{fill:#334e68;font:600 13px system-ui,sans-serif}.value{font:600 14px system-ui,sans-serif}</style><rect class="bg" width="1000" height="390" rx="12"/><text class="heading" x="82" y="31">DP8 vs PCP8 peak throughput over time — last 30 runs</text><line x1="82" y1="52" x2="110" y2="52" stroke="#1570ef" stroke-width="4" stroke-linecap="round"/><text class="legend" x="119" y="57">DP8</text><line x1="212" y1="52" x2="240" y2="52" stroke="#7a5af8" stroke-width="4" stroke-linecap="round"/><text class="legend" x="249" y="57">PCP8</text><line class="grid" x1="82" y1="324.00" x2="972" y2="324.00"/><text class="axis" text-anchor="end" x="71" y="328.00">0</text><line class="grid" x1="82" y1="262.00" x2="972" y2="262.00"/><text class="axis" text-anchor="end" x="71" y="266.00">23.7k</text><line class="grid" x1="82" y1="200.00" x2="972" y2="200.00"/><text class="axis" text-anchor="end" x="71" y="204.00">47.5k</text><line class="grid" x1="82" y1="138.00" x2="972" y2="138.00"/><text class="axis" text-anchor="end" x="71" y="142.00">71.2k</text><line class="grid" x1="82" y1="76.00" x2="972" y2="76.00"/><text class="axis" text-anchor="end" x="71" y="80.00">95.0k</text><text class="axis" text-anchor="middle" x="82.00" y="352">07-31 02:22</text><text class="axis" text-anchor="middle" x="266.14" y="352">08-03 06:47</text><text class="axis" text-anchor="middle" x="450.28" y="352">08-06 00:43</text><text class="axis" text-anchor="middle" x="603.72" y="352">08-06 10:40</text><text class="axis" text-anchor="middle" x="787.86" y="352">08-12 06:25</text><text class="axis" text-anchor="end" x="972.00" y="352">08-19 11:14</text><polyline class="line" stroke="#1570ef" points="143.38,209.39 174.07,208.42 204.76,210.27 235.45,208.38 327.52,194.21 358.21,195.79 388.90,196.56 419.59,195.95 450.28,194.66 480.97,187.35 634.41,186.54 665.10,187.50 695.79,187.53 726.48,187.50 757.17,187.54 818.55,187.19 879.93,187.08 941.31,186.60"/><circle class="dot" fill="#fff" stroke="#1570ef" cx="143.38" cy="209.39" r="6"><title>DP8 · 20260731T031822Z: 43,894.34 tok/s at concurrency 256</title></circle><circle class="dot" fill="#fff" stroke="#1570ef" cx="174.07" cy="208.42" r="6"><title>DP8 · 20260731T160001Z: 44,266.16 tok/s at concurrency 128</title></circle><circle class="dot" fill="#fff" stroke="#1570ef" cx="204.76" cy="210.27" r="6"><title>DP8 · 20260801T160001Z: 43,558.07 tok/s at concurrency 64</title></circle><circle class="dot" fill="#fff" stroke="#1570ef" cx="235.45" cy="208.38" r="6"><title>DP8 · 20260802T160001Z: 44,281.39 tok/s at concurrency 256</title></circle><circle class="dot" fill="#fff" stroke="#1570ef" cx="327.52" cy="194.21" r="6"><title>DP8 · 20260803T160001Z: 49,711.87 tok/s at concurrency 256</title></circle><circle class="dot" fill="#fff" stroke="#1570ef" cx="358.21" cy="195.79" r="6"><title>DP8 · 20260804T032439Z: 49,106.59 tok/s at concurrency 256</title></circle><circle class="dot" fill="#fff" stroke="#1570ef" cx="388.90" cy="196.56" r="6"><title>DP8 · 20260804T160001Z: 48,809.66 tok/s at concurrency 128</title></circle><circle class="dot" fill="#fff" stroke="#1570ef" cx="419.59" cy="195.95" r="6"><title>DP8 · 20260805T160001Z: 49,042.41 tok/s at concurrency 256</title></circle><circle class="dot" fill="#fff" stroke="#1570ef" cx="450.28" cy="194.66" r="6"><title>DP8 · 20260806T001555Z: 49,536.95 tok/s at concurrency 32</title></circle><circle class="dot" fill="#fff" stroke="#1570ef" cx="480.97" cy="187.35" r="6"><title>DP8 · 20260806T013022Z: 52,337.11 tok/s at concurrency 32</title></circle><circle class="dot" fill="#fff" stroke="#1570ef" cx="634.41" cy="186.54" r="6"><title>DP8 · 20260806T160001Z: 52,648.59 tok/s at concurrency 256</title></circle><circle class="dot" fill="#fff" stroke="#1570ef" cx="665.10" cy="187.50" r="6"><title>DP8 · 20260807T061907Z: 52,281.20 tok/s at concurrency 64</title></circle><circle class="dot" fill="#fff" stroke="#1570ef" cx="695.79" cy="187.53" r="6"><title>DP8 · 20260808T000237Z: 52,267.53 tok/s at concurrency 32</title></circle><circle class="dot" fill="#fff" stroke="#1570ef" cx="726.48" cy="187.50" r="6"><title>DP8 · 20260808T160001Z: 52,281.16 tok/s at concurrency 32</title></circle><circle class="dot" fill="#fff" stroke="#1570ef" cx="757.17" cy="187.54" r="6"><title>DP8 · 20260809T160001Z: 52,263.67 tok/s at concurrency 64</title></circle><circle class="dot" fill="#fff" stroke="#1570ef" cx="818.55" cy="187.19" r="6"><title>DP8 · 20260812T073954Z: 52,400.11 tok/s at concurrency 32</title></circle><circle class="dot" fill="#fff" stroke="#1570ef" cx="879.93" cy="187.08" r="6"><title>DP8 · 20260813T093010Z: 52,442.02 tok/s at concurrency 32</title></circle><circle class="dot latest" fill="#1570ef" stroke="#1570ef" cx="941.31" cy="186.60" r="6"><title>DP8 · 20260818T130726Z: 52,626.18 tok/s at concurrency 128</title></circle><text class="value" fill="#1570ef" text-anchor="end" x="941.31" y="173.60">52,626 tok/s</text><polyline class="line" stroke="#7a5af8" points="143.38,173.44 174.07,173.30 235.45,173.15 266.14,233.18 327.52,102.57 358.21,205.08 388.90,205.09 419.59,206.08 511.66,197.44 573.03,197.35 665.10,196.90 849.24,196.08 910.62,196.05 941.31,192.92 972.00,192.84"/><circle class="dot" fill="#fff" stroke="#7a5af8" cx="143.38" cy="173.44" r="6"><title>PCP8 · 20260731T031822Z: 57,665.48 tok/s at concurrency 16</title></circle><circle class="dot" fill="#fff" stroke="#7a5af8" cx="174.07" cy="173.30" r="6"><title>PCP8 · 20260731T160001Z: 57,719.11 tok/s at concurrency 16</title></circle><circle class="dot" fill="#fff" stroke="#7a5af8" cx="235.45" cy="173.15" r="6"><title>PCP8 · 20260802T160001Z: 57,775.47 tok/s at concurrency 16</title></circle><circle class="dot" fill="#fff" stroke="#7a5af8" cx="266.14" cy="233.18" r="6"><title>PCP8 · 20260803T062653Z: 34,784.22 tok/s at concurrency 16</title></circle><circle class="dot" fill="#fff" stroke="#7a5af8" cx="327.52" cy="102.57" r="6"><title>PCP8 · 20260803T160001Z: 84,808.34 tok/s at concurrency 16</title></circle><circle class="dot" fill="#fff" stroke="#7a5af8" cx="358.21" cy="205.08" r="6"><title>PCP8 · 20260804T032439Z: 45,548.65 tok/s at concurrency 32</title></circle><circle class="dot" fill="#fff" stroke="#7a5af8" cx="388.90" cy="205.09" r="6"><title>PCP8 · 20260804T160001Z: 45,543.51 tok/s at concurrency 32</title></circle><circle class="dot" fill="#fff" stroke="#7a5af8" cx="419.59" cy="206.08" r="6"><title>PCP8 · 20260805T160001Z: 45,165.61 tok/s at concurrency 16</title></circle><circle class="dot" fill="#fff" stroke="#7a5af8" cx="511.66" cy="197.44" r="6"><title>PCP8 · 20260806T024301Z: 48,474.69 tok/s at concurrency 32</title></circle><circle class="dot" fill="#fff" stroke="#7a5af8" cx="573.03" cy="197.35" r="6"><title>PCP8 · 20260806T040306Z: 48,507.94 tok/s at concurrency 16</title></circle><circle class="dot" fill="#fff" stroke="#7a5af8" cx="665.10" cy="196.90" r="6"><title>PCP8 · 20260807T061907Z: 48,681.26 tok/s at concurrency 64</title></circle><circle class="dot" fill="#fff" stroke="#7a5af8" cx="849.24" cy="196.08" r="6"><title>PCP8 · 20260812T085859Z: 48,994.57 tok/s at concurrency 64</title></circle><circle class="dot" fill="#fff" stroke="#7a5af8" cx="910.62" cy="196.05" r="6"><title>PCP8 · 20260813T100556Z: 49,004.40 tok/s at concurrency 16</title></circle><circle class="dot" fill="#fff" stroke="#7a5af8" cx="941.31" cy="192.92" r="6"><title>PCP8 · 20260818T130726Z: 50,205.37 tok/s at concurrency 16</title></circle><circle class="dot latest" fill="#7a5af8" stroke="#7a5af8" cx="972.00" cy="192.84" r="6"><title>PCP8 · 20260819T025246Z: 50,234.82 tok/s at concurrency 16</title></circle><text class="value" fill="#7a5af8" text-anchor="end" x="972.00" y="215.84">50,235 tok/s</text></svg>