<?xml version="1.0" encoding="UTF-8"?>
<svg xmlns="http://www.w3.org/2000/svg" viewBox="0 0 1000 390" role="img" aria-labelledby="history-title history-desc"><title id="history-title">DP8 vs PCP8 peak throughput over time — last 14 runs</title><desc id="history-desc">Peak total token throughput for recent DP8 and PCP8 benchmark runs, ordered by completion time.</desc><style>.bg{fill:#fff}.grid{stroke:#d9e2ec;stroke-width:1}.axis{fill:#52606d;font:13px ui-monospace,SFMono-Regular,Consolas,monospace}.heading{fill:#102a43;font:600 19px system-ui,sans-serif}.line{fill:none;stroke-width:4;stroke-linejoin:round;stroke-linecap:round}.dot{fill:#fff;stroke-width:3}.latest{stroke-width:3}.legend{fill:#334e68;font:600 13px system-ui,sans-serif}.value{font:600 14px system-ui,sans-serif}</style><rect class="bg" width="1000" height="390" rx="12"/><text class="heading" x="82" y="31">DP8 vs PCP8 peak throughput over time — last 14 runs</text><line x1="82" y1="52" x2="110" y2="52" stroke="#1570ef" stroke-width="4" stroke-linecap="round"/><text class="legend" x="119" y="57">DP8</text><line x1="212" y1="52" x2="240" y2="52" stroke="#7a5af8" stroke-width="4" stroke-linecap="round"/><text class="legend" x="249" y="57">PCP8</text><line class="grid" x1="82" y1="324.00" x2="972" y2="324.00"/><text class="axis" text-anchor="end" x="71" y="328.00">0</text><line class="grid" x1="82" y1="262.00" x2="972" y2="262.00"/><text class="axis" text-anchor="end" x="71" y="266.00">14.4k</text><line class="grid" x1="82" y1="200.00" x2="972" y2="200.00"/><text class="axis" text-anchor="end" x="71" y="204.00">28.8k</text><line class="grid" x1="82" y1="138.00" x2="972" y2="138.00"/><text class="axis" text-anchor="end" x="71" y="142.00">43.3k</text><line class="grid" x1="82" y1="76.00" x2="972" y2="76.00"/><text class="axis" text-anchor="end" x="71" y="80.00">57.7k</text><text class="axis" text-anchor="middle" x="82.00" y="352">07-17 08:05</text><text class="axis" text-anchor="middle" x="287.38" y="352">07-18 00:01</text><text class="axis" text-anchor="middle" x="424.31" y="352">07-19 18:16</text><text class="axis" text-anchor="middle" x="629.69" y="352">07-22 02:28</text><text class="axis" text-anchor="middle" x="766.62" y="352">07-22 08:26</text><text class="axis" text-anchor="end" x="972.00" y="352">07-24 01:27</text><polyline class="line" stroke="#1570ef" points="82.00,111.66 150.46,111.70 218.92,111.75 287.38,133.20 355.85,133.09 424.31,132.92 492.77,136.13 561.23,150.37 629.69,125.17 766.62,116.05 835.08,102.65 903.54,102.73 972.00,102.57"/><circle class="dot" fill="#fff" stroke="#1570ef" cx="82.00" cy="111.66" r="6"><title>DP8 · 20260717T075454Z: 49,381.83 tok/s at concurrency 64</title></circle><circle class="dot" fill="#fff" stroke="#1570ef" cx="150.46" cy="111.70" r="6"><title>DP8 · 20260717T085135Z: 49,372.29 tok/s at concurrency 64</title></circle><circle class="dot" fill="#fff" stroke="#1570ef" cx="218.92" cy="111.75" r="6"><title>DP8 · 20260717T090801Z: 49,360.61 tok/s at concurrency 64</title></circle><circle class="dot" fill="#fff" stroke="#1570ef" cx="287.38" cy="133.20" r="6"><title>DP8 · 20260717T234449Z: 44,371.29 tok/s at concurrency 64</title></circle><circle class="dot" fill="#fff" stroke="#1570ef" cx="355.85" cy="133.09" r="6"><title>DP8 · 20260718T180001Z: 44,397.93 tok/s at concurrency 64</title></circle><circle class="dot" fill="#fff" stroke="#1570ef" cx="424.31" cy="132.92" r="6"><title>DP8 · 20260719T180001Z: 44,436.44 tok/s at concurrency 64</title></circle><circle class="dot" fill="#fff" stroke="#1570ef" cx="492.77" cy="136.13" r="6"><title>DP8 · 20260720T180001Z: 43,690.58 tok/s at concurrency 64</title></circle><circle class="dot" fill="#fff" stroke="#1570ef" cx="561.23" cy="150.37" r="6"><title>DP8 · 20260721T180001Z: 40,378.43 tok/s at concurrency 64</title></circle><circle class="dot" fill="#fff" stroke="#1570ef" cx="629.69" cy="125.17" r="6"><title>DP8 · 20260722T014057Z: 46,240.26 tok/s at concurrency 16</title></circle><circle class="dot" fill="#fff" stroke="#1570ef" cx="766.62" cy="116.05" r="6"><title>DP8 · manual-20260722T081519Z: 48,359.05 tok/s at concurrency 32</title></circle><circle class="dot" fill="#fff" stroke="#1570ef" cx="835.08" cy="102.65" r="6"><title>DP8 · 20260723T064547Z: 51,476.87 tok/s at concurrency 16</title></circle><circle class="dot" fill="#fff" stroke="#1570ef" cx="903.54" cy="102.73" r="6"><title>DP8 · 20260723T083433Z: 51,458.93 tok/s at concurrency 16</title></circle><circle class="dot latest" fill="#1570ef" stroke="#1570ef" cx="972.00" cy="102.57" r="6"><title>DP8 · 20260724T003214Z: 51,494.71 tok/s at concurrency 16</title></circle><text class="value" fill="#1570ef" text-anchor="end" x="972.00" y="90.00">51,495 tok/s</text><polyline class="line" stroke="#7a5af8" points="698.15,176.52 835.08,176.61 903.54,176.55 972.00,177.28"/><circle class="dot" fill="#fff" stroke="#7a5af8" cx="698.15" cy="176.52" r="6"><title>PCP8 · manual-pcp8-bench-20260722T050712Z: 34,296.71 tok/s at concurrency 16</title></circle><circle class="dot" fill="#fff" stroke="#7a5af8" cx="835.08" cy="176.61" r="6"><title>PCP8 · 20260723T064547Z: 34,276.38 tok/s at concurrency 32</title></circle><circle class="dot" fill="#fff" stroke="#7a5af8" cx="903.54" cy="176.55" r="6"><title>PCP8 · 20260723T083433Z: 34,291.21 tok/s at concurrency 16</title></circle><circle class="dot latest" fill="#7a5af8" stroke="#7a5af8" cx="972.00" cy="177.28" r="6"><title>PCP8 · 20260724T003214Z: 34,121.60 tok/s at concurrency 32</title></circle><text class="value" fill="#7a5af8" text-anchor="end" x="972.00" y="200.28">34,122 tok/s</text></svg>