<?xml version="1.0" encoding="UTF-8"?>
<svg xmlns="http://www.w3.org/2000/svg" viewBox="0 0 1000 390" role="img" aria-labelledby="history-title history-desc"><title id="history-title">DP8 vs PCP8 peak throughput over time — last 30 runs</title><desc id="history-desc">Peak total token throughput for recent DP8 and PCP8 benchmark runs, ordered by completion time.</desc><style>.bg{fill:#fff}.grid{stroke:#d9e2ec;stroke-width:1}.axis{fill:#52606d;font:13px ui-monospace,SFMono-Regular,Consolas,monospace}.heading{fill:#102a43;font:600 19px system-ui,sans-serif}.line{fill:none;stroke-width:4;stroke-linejoin:round;stroke-linecap:round}.dot{fill:#fff;stroke-width:3}.latest{stroke-width:3}.legend{fill:#334e68;font:600 13px system-ui,sans-serif}.value{font:600 14px system-ui,sans-serif}</style><rect class="bg" width="1000" height="390" rx="12"/><text class="heading" x="82" y="31">DP8 vs PCP8 peak throughput over time — last 30 runs</text><line x1="82" y1="52" x2="110" y2="52" stroke="#1570ef" stroke-width="4" stroke-linecap="round"/><text class="legend" x="119" y="57">DP8</text><line x1="212" y1="52" x2="240" y2="52" stroke="#7a5af8" stroke-width="4" stroke-linecap="round"/><text class="legend" x="249" y="57">PCP8</text><line class="grid" x1="82" y1="324.00" x2="972" y2="324.00"/><text class="axis" text-anchor="end" x="71" y="328.00">0</text><line class="grid" x1="82" y1="262.00" x2="972" y2="262.00"/><text class="axis" text-anchor="end" x="71" y="266.00">22.2k</text><line class="grid" x1="82" y1="200.00" x2="972" y2="200.00"/><text class="axis" text-anchor="end" x="71" y="204.00">44.4k</text><line class="grid" x1="82" y1="138.00" x2="972" y2="138.00"/><text class="axis" text-anchor="end" x="71" y="142.00">66.7k</text><line class="grid" x1="82" y1="76.00" x2="972" y2="76.00"/><text class="axis" text-anchor="end" x="71" y="80.00">88.9k</text><text class="axis" text-anchor="middle" x="82.00" y="352">08-08 18:21</text><text class="axis" text-anchor="middle" x="266.14" y="352">08-13 10:34</text><text class="axis" text-anchor="middle" x="450.28" y="352">08-21 23:25</text><text class="axis" text-anchor="middle" x="603.72" y="352">08-22 10:54</text><text class="axis" text-anchor="middle" x="787.86" y="352">09-02 10:41</text><text class="axis" text-anchor="end" x="972.00" y="352">09-14 13:19</text><polyline class="line" stroke="#1570ef" points="82.00,178.15 112.69,178.20 174.07,177.82 235.45,177.70 296.83,177.19 358.21,177.83 480.97,164.01 603.72,171.35 634.41,163.10 695.79,163.08 726.48,122.00 849.24,122.59 879.93,120.77 941.31,121.04 972.00,102.57"/><circle class="dot" fill="#fff" stroke="#1570ef" cx="82.00" cy="178.15" r="6"><title>DP8 · 20260808T160001Z: 52,281.16 tok/s at concurrency 32</title></circle><circle class="dot" fill="#fff" stroke="#1570ef" cx="112.69" cy="178.20" r="6"><title>DP8 · 20260809T160001Z: 52,263.67 tok/s at concurrency 64</title></circle><circle class="dot" fill="#fff" stroke="#1570ef" cx="174.07" cy="177.82" r="6"><title>DP8 · 20260812T073954Z: 52,400.11 tok/s at concurrency 32</title></circle><circle class="dot" fill="#fff" stroke="#1570ef" cx="235.45" cy="177.70" r="6"><title>DP8 · 20260813T093010Z: 52,442.02 tok/s at concurrency 32</title></circle><circle class="dot" fill="#fff" stroke="#1570ef" cx="296.83" cy="177.19" r="6"><title>DP8 · 20260818T130726Z: 52,626.18 tok/s at concurrency 128</title></circle><circle class="dot" fill="#fff" stroke="#1570ef" cx="358.21" cy="177.83" r="6"><title>DP8 · 20260820T051256Z: 52,395.10 tok/s at concurrency 64</title></circle><circle class="dot" fill="#fff" stroke="#1570ef" cx="480.97" cy="164.01" r="6"><title>DP8 · 20260821T141540Z: 57,348.33 tok/s at concurrency 128</title></circle><circle class="dot" fill="#fff" stroke="#1570ef" cx="603.72" cy="171.35" r="6"><title>DP8 · 20260822T023546Z: 54,716.87 tok/s at concurrency 32</title></circle><circle class="dot" fill="#fff" stroke="#1570ef" cx="634.41" cy="163.10" r="6"><title>DP8 · 20260822T032205Z: 57,676.65 tok/s at concurrency 256</title></circle><circle class="dot" fill="#fff" stroke="#1570ef" cx="695.79" cy="163.08" r="6"><title>DP8 · 20260826T113318Z: 57,682.03 tok/s at concurrency 64</title></circle><circle class="dot" fill="#fff" stroke="#1570ef" cx="726.48" cy="122.00" r="6"><title>DP8 · 20260901T143805Z: 72,407.54 tok/s at concurrency 32</title></circle><circle class="dot" fill="#fff" stroke="#1570ef" cx="849.24" cy="122.59" r="6"><title>DP8 · 20260903T155110Z: 72,195.06 tok/s at concurrency 64</title></circle><circle class="dot" fill="#fff" stroke="#1570ef" cx="879.93" cy="120.77" r="6"><title>DP8 · 20260909T133115Z: 72,849.22 tok/s at concurrency 32</title></circle><circle class="dot" fill="#fff" stroke="#1570ef" cx="941.31" cy="121.04" r="6"><title>DP8 · 20260910T101920Z: 72,750.20 tok/s at concurrency 256</title></circle><circle class="dot latest" fill="#1570ef" stroke="#1570ef" cx="972.00" cy="102.57" r="6"><title>DP8 · 20260914T122239Z: 79,372.02 tok/s at concurrency 64</title></circle><text class="value" fill="#1570ef" text-anchor="end" x="972.00" y="90.00">79,372 tok/s</text><polyline class="line" stroke="#7a5af8" points="204.76,187.32 266.14,187.29 296.83,183.94 327.52,183.86 388.90,183.86 480.97,183.81 542.34,178.76 573.03,178.77 665.10,172.40 695.79,172.43 726.48,172.36 849.24,141.72 879.93,141.31 941.31,140.40"/><circle class="dot" fill="#fff" stroke="#7a5af8" cx="204.76" cy="187.32" r="6"><title>PCP8 · 20260812T085859Z: 48,994.57 tok/s at concurrency 64</title></circle><circle class="dot" fill="#fff" stroke="#7a5af8" cx="266.14" cy="187.29" r="6"><title>PCP8 · 20260813T100556Z: 49,004.40 tok/s at concurrency 16</title></circle><circle class="dot" fill="#fff" stroke="#7a5af8" cx="296.83" cy="183.94" r="6"><title>PCP8 · 20260818T130726Z: 50,205.37 tok/s at concurrency 16</title></circle><circle class="dot" fill="#fff" stroke="#7a5af8" cx="327.52" cy="183.86" r="6"><title>PCP8 · 20260819T025246Z: 50,234.82 tok/s at concurrency 16</title></circle><circle class="dot" fill="#fff" stroke="#7a5af8" cx="388.90" cy="183.86" r="6"><title>PCP8 · 20260820T063948Z: 50,234.11 tok/s at concurrency 64</title></circle><circle class="dot" fill="#fff" stroke="#7a5af8" cx="480.97" cy="183.81" r="6"><title>PCP8 · 20260821T141540Z: 50,252.38 tok/s at concurrency 16</title></circle><circle class="dot" fill="#fff" stroke="#7a5af8" cx="542.34" cy="178.76" r="6"><title>PCP8 · 20260821T233307Z: 52,062.06 tok/s at concurrency 16</title></circle><circle class="dot" fill="#fff" stroke="#7a5af8" cx="573.03" cy="178.77" r="6"><title>PCP8 · 20260822T020323Z: 52,057.24 tok/s at concurrency 32</title></circle><circle class="dot" fill="#fff" stroke="#7a5af8" cx="665.10" cy="172.40" r="6"><title>PCP8 · 20260822T042543Z: 54,339.94 tok/s at concurrency 16</title></circle><circle class="dot" fill="#fff" stroke="#7a5af8" cx="695.79" cy="172.43" r="6"><title>PCP8 · 20260826T113318Z: 54,330.21 tok/s at concurrency 16</title></circle><circle class="dot" fill="#fff" stroke="#7a5af8" cx="726.48" cy="172.36" r="6"><title>PCP8 · 20260901T143805Z: 54,356.74 tok/s at concurrency 32</title></circle><circle class="dot" fill="#fff" stroke="#7a5af8" cx="849.24" cy="141.72" r="6"><title>PCP8 · 20260903T155110Z: 65,337.90 tok/s at concurrency 16</title></circle><circle class="dot" fill="#fff" stroke="#7a5af8" cx="879.93" cy="141.31" r="6"><title>PCP8 · 20260909T133115Z: 65,485.43 tok/s at concurrency 64</title></circle><circle class="dot latest" fill="#7a5af8" stroke="#7a5af8" cx="941.31" cy="140.40" r="6"><title>PCP8 · 20260910T101920Z: 65,810.82 tok/s at concurrency 64</title></circle><text class="value" fill="#7a5af8" text-anchor="end" x="941.31" y="163.40">65,811 tok/s</text></svg>