<?xml version="1.0" encoding="UTF-8"?>
<svg xmlns="http://www.w3.org/2000/svg" viewBox="0 0 1000 390" role="img" aria-labelledby="history-title history-desc"><title id="history-title">DP8 vs PCP8 peak throughput over time — last 15 runs</title><desc id="history-desc">Peak total token throughput for recent DP8 and PCP8 benchmark runs, ordered by completion time.</desc><style>.bg{fill:#fff}.grid{stroke:#d9e2ec;stroke-width:1}.axis{fill:#52606d;font:13px ui-monospace,SFMono-Regular,Consolas,monospace}.heading{fill:#102a43;font:600 19px system-ui,sans-serif}.line{fill:none;stroke-width:4;stroke-linejoin:round;stroke-linecap:round}.dot{fill:#fff;stroke-width:3}.latest{stroke-width:3}.legend{fill:#334e68;font:600 13px system-ui,sans-serif}.value{font:600 14px system-ui,sans-serif}</style><rect class="bg" width="1000" height="390" rx="12"/><text class="heading" x="82" y="31">DP8 vs PCP8 peak throughput over time — last 15 runs</text><line x1="82" y1="52" x2="110" y2="52" stroke="#1570ef" stroke-width="4" stroke-linecap="round"/><text class="legend" x="119" y="57">DP8</text><line x1="212" y1="52" x2="240" y2="52" stroke="#7a5af8" stroke-width="4" stroke-linecap="round"/><text class="legend" x="249" y="57">PCP8</text><line class="grid" x1="82" y1="324.00" x2="972" y2="324.00"/><text class="axis" text-anchor="end" x="71" y="328.00">0</text><line class="grid" x1="82" y1="262.00" x2="972" y2="262.00"/><text class="axis" text-anchor="end" x="71" y="266.00">14.6k</text><line class="grid" x1="82" y1="200.00" x2="972" y2="200.00"/><text class="axis" text-anchor="end" x="71" y="204.00">29.1k</text><line class="grid" x1="82" y1="138.00" x2="972" y2="138.00"/><text class="axis" text-anchor="end" x="71" y="142.00">43.7k</text><line class="grid" x1="82" y1="76.00" x2="972" y2="76.00"/><text class="axis" text-anchor="end" x="71" y="80.00">58.3k</text><text class="axis" text-anchor="middle" x="82.00" y="352">07-17 08:05</text><text class="axis" text-anchor="middle" x="272.71" y="352">07-18 00:01</text><text class="axis" text-anchor="middle" x="463.43" y="352">07-20 18:16</text><text class="axis" text-anchor="middle" x="590.57" y="352">07-22 02:28</text><text class="axis" text-anchor="middle" x="781.29" y="352">07-23 07:39</text><text class="axis" text-anchor="end" x="972.00" y="352">07-24 19:35</text><polyline class="line" stroke="#1570ef" points="82.00,113.76 145.57,113.80 209.14,113.85 272.71,135.09 336.29,134.98 399.86,134.81 463.43,137.99 527.00,152.09 590.57,127.13 717.71,118.11 781.29,104.84 844.86,104.91 908.43,104.76 972.00,102.57"/><circle class="dot" fill="#fff" stroke="#1570ef" cx="82.00" cy="113.76" r="6"><title>DP8 · 20260717T075454Z: 49,381.83 tok/s at concurrency 64</title></circle><circle class="dot" fill="#fff" stroke="#1570ef" cx="145.57" cy="113.80" r="6"><title>DP8 · 20260717T085135Z: 49,372.29 tok/s at concurrency 64</title></circle><circle class="dot" fill="#fff" stroke="#1570ef" cx="209.14" cy="113.85" r="6"><title>DP8 · 20260717T090801Z: 49,360.61 tok/s at concurrency 64</title></circle><circle class="dot" fill="#fff" stroke="#1570ef" cx="272.71" cy="135.09" r="6"><title>DP8 · 20260717T234449Z: 44,371.29 tok/s at concurrency 64</title></circle><circle class="dot" fill="#fff" stroke="#1570ef" cx="336.29" cy="134.98" r="6"><title>DP8 · 20260718T180001Z: 44,397.93 tok/s at concurrency 64</title></circle><circle class="dot" fill="#fff" stroke="#1570ef" cx="399.86" cy="134.81" r="6"><title>DP8 · 20260719T180001Z: 44,436.44 tok/s at concurrency 64</title></circle><circle class="dot" fill="#fff" stroke="#1570ef" cx="463.43" cy="137.99" r="6"><title>DP8 · 20260720T180001Z: 43,690.58 tok/s at concurrency 64</title></circle><circle class="dot" fill="#fff" stroke="#1570ef" cx="527.00" cy="152.09" r="6"><title>DP8 · 20260721T180001Z: 40,378.43 tok/s at concurrency 64</title></circle><circle class="dot" fill="#fff" stroke="#1570ef" cx="590.57" cy="127.13" r="6"><title>DP8 · 20260722T014057Z: 46,240.26 tok/s at concurrency 16</title></circle><circle class="dot" fill="#fff" stroke="#1570ef" cx="717.71" cy="118.11" r="6"><title>DP8 · manual-20260722T081519Z: 48,359.05 tok/s at concurrency 32</title></circle><circle class="dot" fill="#fff" stroke="#1570ef" cx="781.29" cy="104.84" r="6"><title>DP8 · 20260723T064547Z: 51,476.87 tok/s at concurrency 16</title></circle><circle class="dot" fill="#fff" stroke="#1570ef" cx="844.86" cy="104.91" r="6"><title>DP8 · 20260723T083433Z: 51,458.93 tok/s at concurrency 16</title></circle><circle class="dot" fill="#fff" stroke="#1570ef" cx="908.43" cy="104.76" r="6"><title>DP8 · 20260724T003214Z: 51,494.71 tok/s at concurrency 16</title></circle><circle class="dot latest" fill="#1570ef" stroke="#1570ef" cx="972.00" cy="102.57" r="6"><title>DP8 · 20260724T180001Z: 52,008.96 tok/s at concurrency 16</title></circle><text class="value" fill="#1570ef" text-anchor="end" x="972.00" y="90.00">52,009 tok/s</text><polyline class="line" stroke="#7a5af8" points="654.14,177.98 781.29,178.07 844.86,178.00 908.43,178.73 972.00,140.49"/><circle class="dot" fill="#fff" stroke="#7a5af8" cx="654.14" cy="177.98" r="6"><title>PCP8 · manual-pcp8-bench-20260722T050712Z: 34,296.71 tok/s at concurrency 16</title></circle><circle class="dot" fill="#fff" stroke="#7a5af8" cx="781.29" cy="178.07" r="6"><title>PCP8 · 20260723T064547Z: 34,276.38 tok/s at concurrency 32</title></circle><circle class="dot" fill="#fff" stroke="#7a5af8" cx="844.86" cy="178.00" r="6"><title>PCP8 · 20260723T083433Z: 34,291.21 tok/s at concurrency 16</title></circle><circle class="dot" fill="#fff" stroke="#7a5af8" cx="908.43" cy="178.73" r="6"><title>PCP8 · 20260724T003214Z: 34,121.60 tok/s at concurrency 32</title></circle><circle class="dot latest" fill="#7a5af8" stroke="#7a5af8" cx="972.00" cy="140.49" r="6"><title>PCP8 · 20260724T180001Z: 43,102.49 tok/s at concurrency 16</title></circle><text class="value" fill="#7a5af8" text-anchor="end" x="972.00" y="163.49">43,102 tok/s</text></svg>