<?xml version="1.0" encoding="UTF-8"?>
<svg xmlns="http://www.w3.org/2000/svg" viewBox="0 0 1000 390" role="img" aria-labelledby="throughput-title throughput-desc"><title id="throughput-title">Peak total token throughput — last 8 runs</title><desc id="throughput-desc">Peak total token throughput across recent benchmark runs.</desc><style>.bg{fill:#fff}.grid{stroke:#d9e2ec;stroke-width:1}.axis{fill:#52606d;font:13px ui-monospace,SFMono-Regular,Consolas,monospace}.heading{fill:#102a43;font:600 19px system-ui,sans-serif}.line{fill:none;stroke:#1570ef;stroke-width:4;stroke-linejoin:round;stroke-linecap:round}.dot{fill:#fff;stroke:#1570ef;stroke-width:3}.latest{fill:#f79009;stroke:#b54708;stroke-width:3}.value{fill:#102a43;font:600 14px system-ui,sans-serif}</style><rect class="bg" width="1000" height="390" rx="12"/><text class="heading" x="82" y="31">Peak total token throughput — last 8 runs</text><line class="grid" x1="82" y1="324.00" x2="972" y2="324.00"/><text class="axis" text-anchor="end" x="71" y="328.00">0</text><line class="grid" x1="82" y1="257.00" x2="972" y2="257.00"/><text class="axis" text-anchor="end" x="71" y="261.00">13.8k</text><line class="grid" x1="82" y1="190.00" x2="972" y2="190.00"/><text class="axis" text-anchor="end" x="71" y="194.00">27.7k</text><line class="grid" x1="82" y1="123.00" x2="972" y2="123.00"/><text class="axis" text-anchor="end" x="71" y="127.00">41.5k</text><line class="grid" x1="82" y1="56.00" x2="972" y2="56.00"/><text class="axis" text-anchor="end" x="71" y="60.00">55.3k</text><polyline class="line" points="82.00,84.71 209.14,84.76 336.29,84.82 463.43,108.99 590.57,108.86 717.71,108.68 844.86,112.29 972.00,128.34"/><text class="axis" text-anchor="middle" x="82.00" y="352">07-17 08:05</text><text class="axis" text-anchor="middle" x="209.14" y="352">07-17 08:58</text><text class="axis" text-anchor="middle" x="463.43" y="352">07-18 00:01</text><text class="axis" text-anchor="middle" x="590.57" y="352">07-18 18:17</text><text class="axis" text-anchor="middle" x="844.86" y="352">07-20 18:16</text><text class="axis" text-anchor="middle" x="972.00" y="352">07-21 18:39</text><circle class="dot" cx="82.00" cy="84.71" r="6"><title>20260717T075454Z: 49,381.83 tok/s at concurrency 64</title></circle><circle class="dot" cx="209.14" cy="84.76" r="6"><title>20260717T085135Z: 49,372.29 tok/s at concurrency 64</title></circle><circle class="dot" cx="336.29" cy="84.82" r="6"><title>20260717T090801Z: 49,360.61 tok/s at concurrency 64</title></circle><circle class="dot" cx="463.43" cy="108.99" r="6"><title>20260717T234449Z: 44,371.29 tok/s at concurrency 64</title></circle><circle class="dot" cx="590.57" cy="108.86" r="6"><title>20260718T180001Z: 44,397.93 tok/s at concurrency 64</title></circle><circle class="dot" cx="717.71" cy="108.68" r="6"><title>20260719T180001Z: 44,436.44 tok/s at concurrency 64</title></circle><circle class="dot" cx="844.86" cy="112.29" r="6"><title>20260720T180001Z: 43,690.58 tok/s at concurrency 64</title></circle><circle class="dot latest" cx="972.00" cy="128.34" r="6"><title>20260721T180001Z: 40,378.43 tok/s at concurrency 64</title></circle><text class="value" text-anchor="end" x="972.00" y="114.34">40,378 tok/s</text></svg>