<?xml version="1.0" encoding="UTF-8"?>
<svg xmlns="http://www.w3.org/2000/svg" viewBox="0 0 1000 390" role="img" aria-labelledby="throughput-title throughput-desc"><title id="throughput-title">Latest DP8 vs PCP8 throughput by concurrency</title><desc id="throughput-desc">Total token throughput at each tested concurrency for the latest DP8 and PCP8 benchmark attempts with successful data.</desc><style>.bg{fill:#fff}.grid{stroke:#d9e2ec;stroke-width:1}.axis{fill:#52606d;font:13px ui-monospace,SFMono-Regular,Consolas,monospace}.heading{fill:#102a43;font:600 19px system-ui,sans-serif}.line{fill:none;stroke-width:4;stroke-linejoin:round;stroke-linecap:round}.dot{fill:#fff;stroke-width:3}.latest{stroke-width:3}.legend{fill:#334e68;font:600 13px system-ui,sans-serif}.value{font:600 14px system-ui,sans-serif}</style><rect class="bg" width="1000" height="390" rx="12"/><text class="heading" x="82" y="31">Latest DP8 vs PCP8 throughput by concurrency</text><line x1="82" y1="52" x2="110" y2="52" stroke="#1570ef" stroke-width="4" stroke-linecap="round"/><text class="legend" x="119" y="57">DP8</text><line x1="212" y1="52" x2="240" y2="52" stroke="#7a5af8" stroke-width="4" stroke-linecap="round"/><text class="legend" x="249" y="57">PCP8</text><line class="grid" x1="82" y1="324.00" x2="972" y2="324.00"/><text class="axis" text-anchor="end" x="71" y="328.00">0</text><line class="grid" x1="82" y1="262.00" x2="972" y2="262.00"/><text class="axis" text-anchor="end" x="71" y="266.00">16.2k</text><line class="grid" x1="82" y1="200.00" x2="972" y2="200.00"/><text class="axis" text-anchor="end" x="71" y="204.00">32.3k</text><line class="grid" x1="82" y1="138.00" x2="972" y2="138.00"/><text class="axis" text-anchor="end" x="71" y="142.00">48.5k</text><line class="grid" x1="82" y1="76.00" x2="972" y2="76.00"/><text class="axis" text-anchor="end" x="71" y="80.00">64.6k</text><text class="axis" text-anchor="middle" x="82.00" y="352">c8</text><text class="axis" text-anchor="middle" x="260.00" y="352">c16</text><text class="axis" text-anchor="middle" x="438.00" y="352">c32</text><text class="axis" text-anchor="middle" x="616.00" y="352">c64</text><text class="axis" text-anchor="middle" x="794.00" y="352">c128</text><text class="axis" text-anchor="end" x="972.00" y="352">c256</text><polyline class="line" stroke="#1570ef" points="82.00,240.58 260.00,190.99 438.00,160.64 616.00,159.55 794.00,154.18 972.00,155.67"/><circle class="dot" fill="#fff" stroke="#1570ef" cx="82.00" cy="240.58" r="6"><title>DP8 concurrency 8: 21,745.99 tok/s</title></circle><circle class="dot" fill="#fff" stroke="#1570ef" cx="260.00" cy="190.99" r="6"><title>DP8 concurrency 16: 34,672.49 tok/s</title></circle><circle class="dot" fill="#fff" stroke="#1570ef" cx="438.00" cy="160.64" r="6"><title>DP8 concurrency 32: 42,582.33 tok/s</title></circle><circle class="dot" fill="#fff" stroke="#1570ef" cx="616.00" cy="159.55" r="6"><title>DP8 concurrency 64: 42,866.24 tok/s</title></circle><circle class="dot" fill="#fff" stroke="#1570ef" cx="794.00" cy="154.18" r="6"><title>DP8 concurrency 128: 44,266.16 tok/s</title></circle><circle class="dot latest" fill="#1570ef" stroke="#1570ef" cx="972.00" cy="155.67" r="6"><title>DP8 concurrency 256: 43,877.01 tok/s</title></circle><text class="value" fill="#1570ef" text-anchor="end" x="972.00" y="142.67">43,877 tok/s</text><polyline class="line" stroke="#7a5af8" points="82.00,176.52 260.00,102.57 438.00,102.61 616.00,102.69 794.00,102.94 972.00,102.93"/><circle class="dot" fill="#fff" stroke="#7a5af8" cx="82.00" cy="176.52" r="6"><title>PCP8 concurrency 8: 38,443.55 tok/s</title></circle><circle class="dot" fill="#fff" stroke="#7a5af8" cx="260.00" cy="102.57" r="6"><title>PCP8 concurrency 16: 57,719.11 tok/s</title></circle><circle class="dot" fill="#fff" stroke="#7a5af8" cx="438.00" cy="102.61" r="6"><title>PCP8 concurrency 32: 57,707.86 tok/s</title></circle><circle class="dot" fill="#fff" stroke="#7a5af8" cx="616.00" cy="102.69" r="6"><title>PCP8 concurrency 64: 57,688.72 tok/s</title></circle><circle class="dot" fill="#fff" stroke="#7a5af8" cx="794.00" cy="102.94" r="6"><title>PCP8 concurrency 128: 57,624.22 tok/s</title></circle><circle class="dot latest" fill="#7a5af8" stroke="#7a5af8" cx="972.00" cy="102.93" r="6"><title>PCP8 concurrency 256: 57,624.56 tok/s</title></circle><text class="value" fill="#7a5af8" text-anchor="end" x="972.00" y="125.93">57,625 tok/s</text></svg>