<?xml version="1.0" encoding="UTF-8"?>
<svg xmlns="http://www.w3.org/2000/svg" viewBox="0 0 1000 390" role="img" aria-labelledby="history-title history-desc"><title id="history-title">DP8 vs PCP8 peak throughput over time — last 9 runs</title><desc id="history-desc">Peak total token throughput for recent DP8 and PCP8 benchmark runs, ordered by completion time.</desc><style>.bg{fill:#fff}.grid{stroke:#d9e2ec;stroke-width:1}.axis{fill:#52606d;font:13px ui-monospace,SFMono-Regular,Consolas,monospace}.heading{fill:#102a43;font:600 19px system-ui,sans-serif}.line{fill:none;stroke-width:4;stroke-linejoin:round;stroke-linecap:round}.dot{fill:#fff;stroke-width:3}.latest{stroke-width:3}.legend{fill:#334e68;font:600 13px system-ui,sans-serif}.value{font:600 14px system-ui,sans-serif}</style><rect class="bg" width="1000" height="390" rx="12"/><text class="heading" x="82" y="31">DP8 vs PCP8 peak throughput over time — last 9 runs</text><line x1="82" y1="52" x2="110" y2="52" stroke="#1570ef" stroke-width="4" stroke-linecap="round"/><text class="legend" x="119" y="57">DP8</text><line x1="212" y1="52" x2="240" y2="52" stroke="#7a5af8" stroke-width="4" stroke-linecap="round"/><text class="legend" x="249" y="57">PCP8</text><line class="grid" x1="82" y1="324.00" x2="972" y2="324.00"/><text class="axis" text-anchor="end" x="71" y="328.00">0</text><line class="grid" x1="82" y1="262.00" x2="972" y2="262.00"/><text class="axis" text-anchor="end" x="71" y="266.00">14.0k</text><line class="grid" x1="82" y1="200.00" x2="972" y2="200.00"/><text class="axis" text-anchor="end" x="71" y="204.00">27.9k</text><line class="grid" x1="82" y1="138.00" x2="972" y2="138.00"/><text class="axis" text-anchor="end" x="71" y="142.00">41.9k</text><line class="grid" x1="82" y1="76.00" x2="972" y2="76.00"/><text class="axis" text-anchor="end" x="71" y="80.00">55.9k</text><text class="axis" text-anchor="middle" x="82.00" y="352">07-28 02:45</text><text class="axis" text-anchor="middle" x="304.50" y="352">07-28 06:28</text><text class="axis" text-anchor="middle" x="415.75" y="352">07-28 06:33</text><text class="axis" text-anchor="middle" x="638.25" y="352">07-28 07:29</text><text class="axis" text-anchor="middle" x="749.50" y="352">07-28 11:48</text><text class="axis" text-anchor="end" x="972.00" y="352">07-28 16:45</text><polyline class="line" stroke="#1570ef" points="82.00,102.83 527.00,127.29 860.75,102.57 972.00,102.82"/><circle class="dot" fill="#fff" stroke="#1570ef" cx="82.00" cy="102.83" r="6"><title>DP8 · 20260728T012922Z: 49,810.01 tok/s at concurrency 32</title></circle><circle class="dot" fill="#fff" stroke="#1570ef" cx="527.00" cy="127.29" r="6"><title>DP8 · 20260728T063339Z: 44,300.90 tok/s at concurrency 64</title></circle><circle class="dot" fill="#fff" stroke="#1570ef" cx="860.75" cy="102.57" r="6"><title>DP8 · 20260728T120139Z: 49,867.93 tok/s at concurrency 32</title></circle><circle class="dot latest" fill="#1570ef" stroke="#1570ef" cx="972.00" cy="102.82" r="6"><title>DP8 · 20260728T160001Z: 49,812.04 tok/s at concurrency 64</title></circle><text class="value" fill="#1570ef" text-anchor="end" x="972.00" y="90.00">49,812 tok/s</text><polyline class="line" stroke="#7a5af8" points="82.00,141.99 860.75,141.89"/><circle class="dot" fill="#fff" stroke="#7a5af8" cx="82.00" cy="141.99" r="6"><title>PCP8 · 20260728T012922Z: 40,990.71 tok/s at concurrency 32</title></circle><circle class="dot latest" fill="#7a5af8" stroke="#7a5af8" cx="860.75" cy="141.89" r="6"><title>PCP8 · 20260728T120139Z: 41,011.87 tok/s at concurrency 16</title></circle><text class="value" fill="#7a5af8" text-anchor="middle" x="860.75" y="164.89">41,012 tok/s</text></svg>