<?xml version="1.0" encoding="UTF-8"?>
<svg xmlns="http://www.w3.org/2000/svg" viewBox="0 0 1000 390" role="img" aria-labelledby="throughput-title throughput-desc"><title id="throughput-title">Latest DP8 vs PCP8 throughput by concurrency</title><desc id="throughput-desc">Total token throughput at each tested concurrency for the latest successful DP8 and PCP8 benchmarks.</desc><style>.bg{fill:#fff}.grid{stroke:#d9e2ec;stroke-width:1}.axis{fill:#52606d;font:13px ui-monospace,SFMono-Regular,Consolas,monospace}.heading{fill:#102a43;font:600 19px system-ui,sans-serif}.line{fill:none;stroke-width:4;stroke-linejoin:round;stroke-linecap:round}.dot{fill:#fff;stroke-width:3}.latest{stroke-width:3}.legend{fill:#334e68;font:600 13px system-ui,sans-serif}.value{font:600 14px system-ui,sans-serif}</style><rect class="bg" width="1000" height="390" rx="12"/><text class="heading" x="82" y="31">Latest DP8 vs PCP8 throughput by concurrency</text><line x1="82" y1="52" x2="110" y2="52" stroke="#1570ef" stroke-width="4" stroke-linecap="round"/><text class="legend" x="119" y="57">DP8</text><line x1="212" y1="52" x2="240" y2="52" stroke="#7a5af8" stroke-width="4" stroke-linecap="round"/><text class="legend" x="249" y="57">PCP8</text><line class="grid" x1="82" y1="324.00" x2="972" y2="324.00"/><text class="axis" text-anchor="end" x="71" y="328.00">0</text><line class="grid" x1="82" y1="262.00" x2="972" y2="262.00"/><text class="axis" text-anchor="end" x="71" y="266.00">14.4k</text><line class="grid" x1="82" y1="200.00" x2="972" y2="200.00"/><text class="axis" text-anchor="end" x="71" y="204.00">28.8k</text><line class="grid" x1="82" y1="138.00" x2="972" y2="138.00"/><text class="axis" text-anchor="end" x="71" y="142.00">43.2k</text><line class="grid" x1="82" y1="76.00" x2="972" y2="76.00"/><text class="axis" text-anchor="end" x="71" y="80.00">57.7k</text><text class="axis" text-anchor="middle" x="82.00" y="352">c1</text><text class="axis" text-anchor="middle" x="230.33" y="352">c2</text><text class="axis" text-anchor="middle" x="378.67" y="352">c4</text><text class="axis" text-anchor="middle" x="675.33" y="352">c16</text><text class="axis" text-anchor="middle" x="823.67" y="352">c32</text><text class="axis" text-anchor="end" x="972.00" y="352">c64</text><polyline class="line" stroke="#1570ef" points="82.00,304.56 230.33,297.39 378.67,245.63 527.00,198.69 675.33,102.57 823.67,112.59 972.00,113.03"/><circle class="dot" fill="#fff" stroke="#1570ef" cx="82.00" cy="304.56" r="6"><title>DP8 concurrency 1: 4,518.74 tok/s</title></circle><circle class="dot" fill="#fff" stroke="#1570ef" cx="230.33" cy="297.39" r="6"><title>DP8 concurrency 2: 6,186.39 tok/s</title></circle><circle class="dot" fill="#fff" stroke="#1570ef" cx="378.67" cy="245.63" r="6"><title>DP8 concurrency 4: 18,219.36 tok/s</title></circle><circle class="dot" fill="#fff" stroke="#1570ef" cx="527.00" cy="198.69" r="6"><title>DP8 concurrency 8: 29,131.05 tok/s</title></circle><circle class="dot" fill="#fff" stroke="#1570ef" cx="675.33" cy="102.57" r="6"><title>DP8 concurrency 16: 51,476.87 tok/s</title></circle><circle class="dot" fill="#fff" stroke="#1570ef" cx="823.67" cy="112.59" r="6"><title>DP8 concurrency 32: 49,147.77 tok/s</title></circle><circle class="dot latest" fill="#1570ef" stroke="#1570ef" cx="972.00" cy="113.03" r="6"><title>DP8 concurrency 64: 49,045.93 tok/s</title></circle><text class="value" fill="#1570ef" text-anchor="end" x="972.00" y="100.03">49,046 tok/s</text><polyline class="line" stroke="#7a5af8" points="82.00,294.46 230.33,293.38 378.67,258.26 527.00,231.45 675.33,176.67 823.67,176.56 972.00,177.02"/><circle class="dot" fill="#fff" stroke="#7a5af8" cx="82.00" cy="294.46" r="6"><title>PCP8 concurrency 1: 6,867.95 tok/s</title></circle><circle class="dot" fill="#fff" stroke="#7a5af8" cx="230.33" cy="293.38" r="6"><title>PCP8 concurrency 2: 7,117.84 tok/s</title></circle><circle class="dot" fill="#fff" stroke="#7a5af8" cx="378.67" cy="258.26" r="6"><title>PCP8 concurrency 4: 15,283.10 tok/s</title></circle><circle class="dot" fill="#fff" stroke="#7a5af8" cx="527.00" cy="231.45" r="6"><title>PCP8 concurrency 8: 21,514.80 tok/s</title></circle><circle class="dot" fill="#fff" stroke="#7a5af8" cx="675.33" cy="176.67" r="6"><title>PCP8 concurrency 16: 34,250.99 tok/s</title></circle><circle class="dot" fill="#fff" stroke="#7a5af8" cx="823.67" cy="176.56" r="6"><title>PCP8 concurrency 32: 34,276.38 tok/s</title></circle><circle class="dot latest" fill="#7a5af8" stroke="#7a5af8" cx="972.00" cy="177.02" r="6"><title>PCP8 concurrency 64: 34,170.02 tok/s</title></circle><text class="value" fill="#7a5af8" text-anchor="end" x="972.00" y="200.02">34,170 tok/s</text></svg>