<?xml version="1.0" encoding="UTF-8"?>
<svg xmlns="http://www.w3.org/2000/svg" viewBox="0 0 1000 390" role="img" aria-labelledby="history-title history-desc"><title id="history-title">DP8 vs PCP8 peak throughput over time — last 30 runs</title><desc id="history-desc">Peak total token throughput for recent DP8 and PCP8 benchmark runs, ordered by completion time.</desc><style>.bg{fill:#fff}.grid{stroke:#d9e2ec;stroke-width:1}.axis{fill:#52606d;font:13px ui-monospace,SFMono-Regular,Consolas,monospace}.heading{fill:#102a43;font:600 19px system-ui,sans-serif}.line{fill:none;stroke-width:4;stroke-linejoin:round;stroke-linecap:round}.dot{fill:#fff;stroke-width:3}.latest{stroke-width:3}.legend{fill:#334e68;font:600 13px system-ui,sans-serif}.value{font:600 14px system-ui,sans-serif}</style><rect class="bg" width="1000" height="390" rx="12"/><text class="heading" x="82" y="31">DP8 vs PCP8 peak throughput over time — last 30 runs</text><line x1="82" y1="52" x2="110" y2="52" stroke="#1570ef" stroke-width="4" stroke-linecap="round"/><text class="legend" x="119" y="57">DP8</text><line x1="212" y1="52" x2="240" y2="52" stroke="#7a5af8" stroke-width="4" stroke-linecap="round"/><text class="legend" x="249" y="57">PCP8</text><line class="grid" x1="82" y1="324.00" x2="972" y2="324.00"/><text class="axis" text-anchor="end" x="71" y="328.00">0</text><line class="grid" x1="82" y1="262.00" x2="972" y2="262.00"/><text class="axis" text-anchor="end" x="71" y="266.00">23.7k</text><line class="grid" x1="82" y1="200.00" x2="972" y2="200.00"/><text class="axis" text-anchor="end" x="71" y="204.00">47.5k</text><line class="grid" x1="82" y1="138.00" x2="972" y2="138.00"/><text class="axis" text-anchor="end" x="71" y="142.00">71.2k</text><line class="grid" x1="82" y1="76.00" x2="972" y2="76.00"/><text class="axis" text-anchor="end" x="71" y="80.00">95.0k</text><text class="axis" text-anchor="middle" x="82.00" y="352">07-28 06:33</text><text class="axis" text-anchor="middle" x="266.14" y="352">07-29 00:54</text><text class="axis" text-anchor="middle" x="450.28" y="352">07-31 05:46</text><text class="axis" text-anchor="middle" x="603.72" y="352">08-03 08:57</text><text class="axis" text-anchor="middle" x="787.86" y="352">08-06 01:57</text><text class="axis" text-anchor="end" x="972.00" y="352">08-07 09:07</text><polyline class="line" stroke="#1570ef" points="112.69,208.33 204.76,193.80 235.45,193.94 296.83,192.41 327.52,194.14 450.28,209.39 480.97,208.42 511.66,210.27 542.34,208.38 634.41,194.21 665.10,195.79 695.79,196.56 726.48,195.95 757.17,194.66 787.86,187.35 941.31,186.54 972.00,187.50"/><circle class="dot" fill="#fff" stroke="#1570ef" cx="112.69" cy="208.33" r="6"><title>DP8 · 20260728T063339Z: 44,300.90 tok/s at concurrency 64</title></circle><circle class="dot" fill="#fff" stroke="#1570ef" cx="204.76" cy="193.80" r="6"><title>DP8 · 20260728T120139Z: 49,867.93 tok/s at concurrency 32</title></circle><circle class="dot" fill="#fff" stroke="#1570ef" cx="235.45" cy="193.94" r="6"><title>DP8 · 20260728T160001Z: 49,812.04 tok/s at concurrency 64</title></circle><circle class="dot" fill="#fff" stroke="#1570ef" cx="296.83" cy="192.41" r="6"><title>DP8 · 20260729T081713Z: 50,400.07 tok/s at concurrency 16</title></circle><circle class="dot" fill="#fff" stroke="#1570ef" cx="327.52" cy="194.14" r="6"><title>DP8 · 20260729T233933Z: 49,738.90 tok/s at concurrency 32</title></circle><circle class="dot" fill="#fff" stroke="#1570ef" cx="450.28" cy="209.39" r="6"><title>DP8 · 20260731T031822Z: 43,894.34 tok/s at concurrency 256</title></circle><circle class="dot" fill="#fff" stroke="#1570ef" cx="480.97" cy="208.42" r="6"><title>DP8 · 20260731T160001Z: 44,266.16 tok/s at concurrency 128</title></circle><circle class="dot" fill="#fff" stroke="#1570ef" cx="511.66" cy="210.27" r="6"><title>DP8 · 20260801T160001Z: 43,558.07 tok/s at concurrency 64</title></circle><circle class="dot" fill="#fff" stroke="#1570ef" cx="542.34" cy="208.38" r="6"><title>DP8 · 20260802T160001Z: 44,281.39 tok/s at concurrency 256</title></circle><circle class="dot" fill="#fff" stroke="#1570ef" cx="634.41" cy="194.21" r="6"><title>DP8 · 20260803T160001Z: 49,711.87 tok/s at concurrency 256</title></circle><circle class="dot" fill="#fff" stroke="#1570ef" cx="665.10" cy="195.79" r="6"><title>DP8 · 20260804T032439Z: 49,106.59 tok/s at concurrency 256</title></circle><circle class="dot" fill="#fff" stroke="#1570ef" cx="695.79" cy="196.56" r="6"><title>DP8 · 20260804T160001Z: 48,809.66 tok/s at concurrency 128</title></circle><circle class="dot" fill="#fff" stroke="#1570ef" cx="726.48" cy="195.95" r="6"><title>DP8 · 20260805T160001Z: 49,042.41 tok/s at concurrency 256</title></circle><circle class="dot" fill="#fff" stroke="#1570ef" cx="757.17" cy="194.66" r="6"><title>DP8 · 20260806T001555Z: 49,536.95 tok/s at concurrency 32</title></circle><circle class="dot" fill="#fff" stroke="#1570ef" cx="787.86" cy="187.35" r="6"><title>DP8 · 20260806T013022Z: 52,337.11 tok/s at concurrency 32</title></circle><circle class="dot" fill="#fff" stroke="#1570ef" cx="941.31" cy="186.54" r="6"><title>DP8 · 20260806T160001Z: 52,648.59 tok/s at concurrency 256</title></circle><circle class="dot latest" fill="#1570ef" stroke="#1570ef" cx="972.00" cy="187.50" r="6"><title>DP8 · 20260807T061907Z: 52,281.20 tok/s at concurrency 64</title></circle><text class="value" fill="#1570ef" text-anchor="end" x="972.00" y="174.50">52,281 tok/s</text><polyline class="line" stroke="#7a5af8" points="204.76,216.92 266.14,216.94 296.83,216.98 327.52,216.83 358.21,236.78 450.28,173.44 480.97,173.30 542.34,173.15 573.03,233.18 634.41,102.57 665.10,205.08 695.79,205.09 726.48,206.08 818.55,197.44 879.93,197.35 972.00,196.90"/><circle class="dot" fill="#fff" stroke="#7a5af8" cx="204.76" cy="216.92" r="6"><title>PCP8 · 20260728T120139Z: 41,011.87 tok/s at concurrency 16</title></circle><circle class="dot" fill="#fff" stroke="#7a5af8" cx="266.14" cy="216.94" r="6"><title>PCP8 · 20260728T233050Z: 41,006.13 tok/s at concurrency 16</title></circle><circle class="dot" fill="#fff" stroke="#7a5af8" cx="296.83" cy="216.98" r="6"><title>PCP8 · 20260729T081713Z: 40,987.73 tok/s at concurrency 32</title></circle><circle class="dot" fill="#fff" stroke="#7a5af8" cx="327.52" cy="216.83" r="6"><title>PCP8 · 20260729T233933Z: 41,045.98 tok/s at concurrency 16</title></circle><circle class="dot" fill="#fff" stroke="#7a5af8" cx="358.21" cy="236.78" r="6"><title>PCP8 · 20260730T160002Z: 33,403.83 tok/s at concurrency 16</title></circle><circle class="dot" fill="#fff" stroke="#7a5af8" cx="450.28" cy="173.44" r="6"><title>PCP8 · 20260731T031822Z: 57,665.48 tok/s at concurrency 16</title></circle><circle class="dot" fill="#fff" stroke="#7a5af8" cx="480.97" cy="173.30" r="6"><title>PCP8 · 20260731T160001Z: 57,719.11 tok/s at concurrency 16</title></circle><circle class="dot" fill="#fff" stroke="#7a5af8" cx="542.34" cy="173.15" r="6"><title>PCP8 · 20260802T160001Z: 57,775.47 tok/s at concurrency 16</title></circle><circle class="dot" fill="#fff" stroke="#7a5af8" cx="573.03" cy="233.18" r="6"><title>PCP8 · 20260803T062653Z: 34,784.22 tok/s at concurrency 16</title></circle><circle class="dot" fill="#fff" stroke="#7a5af8" cx="634.41" cy="102.57" r="6"><title>PCP8 · 20260803T160001Z: 84,808.34 tok/s at concurrency 16</title></circle><circle class="dot" fill="#fff" stroke="#7a5af8" cx="665.10" cy="205.08" r="6"><title>PCP8 · 20260804T032439Z: 45,548.65 tok/s at concurrency 32</title></circle><circle class="dot" fill="#fff" stroke="#7a5af8" cx="695.79" cy="205.09" r="6"><title>PCP8 · 20260804T160001Z: 45,543.51 tok/s at concurrency 32</title></circle><circle class="dot" fill="#fff" stroke="#7a5af8" cx="726.48" cy="206.08" r="6"><title>PCP8 · 20260805T160001Z: 45,165.61 tok/s at concurrency 16</title></circle><circle class="dot" fill="#fff" stroke="#7a5af8" cx="818.55" cy="197.44" r="6"><title>PCP8 · 20260806T024301Z: 48,474.69 tok/s at concurrency 32</title></circle><circle class="dot" fill="#fff" stroke="#7a5af8" cx="879.93" cy="197.35" r="6"><title>PCP8 · 20260806T040306Z: 48,507.94 tok/s at concurrency 16</title></circle><circle class="dot latest" fill="#7a5af8" stroke="#7a5af8" cx="972.00" cy="196.90" r="6"><title>PCP8 · 20260807T061907Z: 48,681.26 tok/s at concurrency 64</title></circle><text class="value" fill="#7a5af8" text-anchor="end" x="972.00" y="219.90">48,681 tok/s</text></svg>