<?xml version="1.0" encoding="UTF-8"?>
<svg xmlns="http://www.w3.org/2000/svg" viewBox="0 0 1000 390" role="img" aria-labelledby="history-title history-desc"><title id="history-title">DP8 vs PCP8 peak throughput over time — last 12 runs</title><desc id="history-desc">Peak total token throughput for recent DP8 and PCP8 benchmark runs, ordered by completion time.</desc><style>.bg{fill:#fff}.grid{stroke:#d9e2ec;stroke-width:1}.axis{fill:#52606d;font:13px ui-monospace,SFMono-Regular,Consolas,monospace}.heading{fill:#102a43;font:600 19px system-ui,sans-serif}.line{fill:none;stroke-width:4;stroke-linejoin:round;stroke-linecap:round}.dot{fill:#fff;stroke-width:3}.latest{stroke-width:3}.legend{fill:#334e68;font:600 13px system-ui,sans-serif}.value{font:600 14px system-ui,sans-serif}</style><rect class="bg" width="1000" height="390" rx="12"/><text class="heading" x="82" y="31">DP8 vs PCP8 peak throughput over time — last 12 runs</text><line x1="82" y1="52" x2="110" y2="52" stroke="#1570ef" stroke-width="4" stroke-linecap="round"/><text class="legend" x="119" y="57">DP8</text><line x1="212" y1="52" x2="240" y2="52" stroke="#7a5af8" stroke-width="4" stroke-linecap="round"/><text class="legend" x="249" y="57">PCP8</text><line class="grid" x1="82" y1="324.00" x2="972" y2="324.00"/><text class="axis" text-anchor="end" x="71" y="328.00">0</text><line class="grid" x1="82" y1="262.00" x2="972" y2="262.00"/><text class="axis" text-anchor="end" x="71" y="266.00">14.4k</text><line class="grid" x1="82" y1="200.00" x2="972" y2="200.00"/><text class="axis" text-anchor="end" x="71" y="204.00">28.8k</text><line class="grid" x1="82" y1="138.00" x2="972" y2="138.00"/><text class="axis" text-anchor="end" x="71" y="142.00">43.2k</text><line class="grid" x1="82" y1="76.00" x2="972" y2="76.00"/><text class="axis" text-anchor="end" x="71" y="80.00">57.7k</text><text class="axis" text-anchor="middle" x="82.00" y="352">07-17 08:05</text><text class="axis" text-anchor="middle" x="243.82" y="352">07-17 09:18</text><text class="axis" text-anchor="middle" x="405.64" y="352">07-18 18:17</text><text class="axis" text-anchor="middle" x="648.36" y="352">07-21 18:39</text><text class="axis" text-anchor="middle" x="810.18" y="352">07-22 05:17</text><text class="axis" text-anchor="middle" x="972.00" y="352">07-23 07:39</text><polyline class="line" stroke="#1570ef" points="82.00,111.58 162.91,111.62 243.82,111.67 324.73,133.14 405.64,133.02 486.55,132.86 567.45,136.06 648.36,150.31 729.27,125.10 891.09,115.98 972.00,102.57"/><circle class="dot" fill="#fff" stroke="#1570ef" cx="82.00" cy="111.58" r="6"><title>DP8 · 20260717T075454Z: 49,381.83 tok/s at concurrency 64</title></circle><circle class="dot" fill="#fff" stroke="#1570ef" cx="162.91" cy="111.62" r="6"><title>DP8 · 20260717T085135Z: 49,372.29 tok/s at concurrency 64</title></circle><circle class="dot" fill="#fff" stroke="#1570ef" cx="243.82" cy="111.67" r="6"><title>DP8 · 20260717T090801Z: 49,360.61 tok/s at concurrency 64</title></circle><circle class="dot" fill="#fff" stroke="#1570ef" cx="324.73" cy="133.14" r="6"><title>DP8 · 20260717T234449Z: 44,371.29 tok/s at concurrency 64</title></circle><circle class="dot" fill="#fff" stroke="#1570ef" cx="405.64" cy="133.02" r="6"><title>DP8 · 20260718T180001Z: 44,397.93 tok/s at concurrency 64</title></circle><circle class="dot" fill="#fff" stroke="#1570ef" cx="486.55" cy="132.86" r="6"><title>DP8 · 20260719T180001Z: 44,436.44 tok/s at concurrency 64</title></circle><circle class="dot" fill="#fff" stroke="#1570ef" cx="567.45" cy="136.06" r="6"><title>DP8 · 20260720T180001Z: 43,690.58 tok/s at concurrency 64</title></circle><circle class="dot" fill="#fff" stroke="#1570ef" cx="648.36" cy="150.31" r="6"><title>DP8 · 20260721T180001Z: 40,378.43 tok/s at concurrency 64</title></circle><circle class="dot" fill="#fff" stroke="#1570ef" cx="729.27" cy="125.10" r="6"><title>DP8 · 20260722T014057Z: 46,240.26 tok/s at concurrency 16</title></circle><circle class="dot" fill="#fff" stroke="#1570ef" cx="891.09" cy="115.98" r="6"><title>DP8 · manual-20260722T081519Z: 48,359.05 tok/s at concurrency 32</title></circle><circle class="dot latest" fill="#1570ef" stroke="#1570ef" cx="972.00" cy="102.57" r="6"><title>DP8 · 20260723T064547Z: 51,476.87 tok/s at concurrency 16</title></circle><text class="value" fill="#1570ef" text-anchor="end" x="972.00" y="90.00">51,477 tok/s</text><polyline class="line" stroke="#7a5af8" points="810.18,176.47 972.00,176.56"/><circle class="dot" fill="#fff" stroke="#7a5af8" cx="810.18" cy="176.47" r="6"><title>PCP8 · manual-pcp8-bench-20260722T050712Z: 34,296.71 tok/s at concurrency 16</title></circle><circle class="dot latest" fill="#7a5af8" stroke="#7a5af8" cx="972.00" cy="176.56" r="6"><title>PCP8 · 20260723T064547Z: 34,276.38 tok/s at concurrency 32</title></circle><text class="value" fill="#7a5af8" text-anchor="end" x="972.00" y="199.56">34,276 tok/s</text></svg>